<svg id="svg" version="1.1" xmlns="http://www.w3.org/2000/svg" style="display: block;" viewBox="0 0 1024 1024"><path d="M0 0 C337.92 0 675.84 0 1024 0 C1024 337.92 1024 675.84 1024 1024 C686.08 1024 348.16 1024 0 1024 C0 686.08 0 348.16 0 0 Z " transform="translate(0,0)" style="fill: #F3FBFA;"/><path d="M0 0 C1.01707031 0.350625 2.03414062 0.70125 3.08203125 1.0625 C15.40869012 5.81494679 28.07536887 12.21832063 38 21 C38.80566406 21.68707031 39.61132812 22.37414062 40.44140625 23.08203125 C58.98045702 39.24355489 73.23644744 61.12802697 76 86 C76.7528125 86.20753906 77.505625 86.41507812 78.28125 86.62890625 C99.04741943 92.65210345 117.05268491 102.39225938 133 117 C133.82242187 117.75152344 134.64484375 118.50304687 135.4921875 119.27734375 C157.76055652 140.58254802 172.129768 172.1120021 173.2734375 202.87890625 C173.71299153 223.38118145 172.00008977 246.55932215 160.47875977 264.34887695 C155.54743961 272.24349004 155.37026363 278.53812095 155.8125 287.6875 C156.12313008 298.58016162 155.91938635 308.46599302 153 319 C152.77183594 319.83402344 152.54367187 320.66804688 152.30859375 321.52734375 C151.63008157 323.73347765 150.84988774 325.85431929 150 328 C149.64035156 328.94230469 149.28070312 329.88460938 148.91015625 330.85546875 C138.93152931 356.00925998 119.68042916 375.06602037 95.18359375 386.09521484 C73.19833796 395.20493733 47.04562753 396.46746119 24.8125 387.6875 C22.86371403 386.81649089 20.92572034 385.92088261 19 385 C17.61167969 384.33677734 17.61167969 384.33677734 16.1953125 383.66015625 C3.07334131 376.95047976 -7.49853998 366.90204403 -16 355 C-16.33 407.8 -16.66 460.6 -17 515 C18.79589743 514.8417848 18.79589743 514.8417848 54.59155273 514.63964844 C61.5333252 514.62158203 61.5333252 514.62158203 64.78871155 514.6182251 C67.05001478 514.61210477 69.31130539 514.59808211 71.57252502 514.57769775 C75.00878385 514.54828389 78.44424878 514.54438041 81.88061523 514.54589844 C82.87875213 514.531506 83.87688902 514.51711357 84.90527248 514.502285 C92.65786611 514.54792172 98.69820103 516.29852811 104.75 521.25 C105.86375 522.61125 105.86375 522.61125 107 524 C107.42533524 524.50166183 107.85067047 525.00332367 108.28889465 525.52018738 C113.05630675 531.95569041 112.74086229 538.41095694 112.69921875 546.17578125 C112.70514096 547.55047723 112.71239321 548.92516806 112.72090149 550.29985046 C112.73273519 553.17209875 112.72615684 556.04356996 112.70678711 558.91577148 C112.68395848 562.56754068 112.71063334 566.21697352 112.75184917 569.86851215 C112.77763327 572.70596152 112.77479137 575.54286754 112.76395607 578.38039207 C112.76177811 580.3715117 112.78455471 582.36260949 112.80802917 584.35359192 C112.68513645 594.02700518 110.42446746 601.46208466 103.5625 608.5 C96.42104418 612.68036438 91.26930162 613.40627325 83.0625 613.1875 C82.09248047 613.17396484 81.12246094 613.16042969 80.12304688 613.14648438 C77.74810871 613.11138677 75.37435622 613.06222275 73 613 C73.01450195 613.64291992 73.02900391 614.28583984 73.04394531 614.94824219 C73.16163304 624.75667405 72.46585687 634.47524535 71.75 644.25 C71.68441895 645.16560699 71.61883789 646.08121399 71.55126953 647.02456665 C70.53995935 661.08150534 69.23899789 675.09095432 67.74185181 689.10366821 C66.66161058 699.27295013 65.79538255 709.4316931 65.18359375 719.640625 C65.11943268 720.7073494 65.05527161 721.77407379 64.98916626 722.87312317 C64.68048532 728.09182058 64.39183021 733.31088424 64.12695312 738.53198242 C64.02097998 740.43669436 63.91486702 742.34139853 63.80859375 744.24609375 C63.75245155 745.52791534 63.75245155 745.52791534 63.69517517 746.83563232 C63.18649732 755.61615941 60.83199342 765.58644725 54.10546875 771.73046875 C48.52862514 776.08640782 44.81290697 777.12165463 37.71292114 777.14044189 C35.77401001 777.14900711 35.77401001 777.14900711 33.79592896 777.15774536 C32.36541758 777.15899063 30.93490609 777.16011575 29.50439453 777.16113281 C27.99631631 777.16576264 26.48823926 777.17078753 24.98016357 777.17617798 C20.88508729 777.1892866 16.79002739 777.19574373 12.69493341 777.20018864 C10.13598441 777.20312136 7.57703987 777.20722652 5.01809311 777.21169281 C-2.98987713 777.22536263 -10.99783715 777.23503226 -19.00581825 777.2388947 C-28.24720534 777.24337672 -37.48844461 777.2609334 -46.72978675 777.2898953 C-53.87555268 777.31151199 -61.021277 777.32159895 -68.16707528 777.32293582 C-72.43401088 777.3239837 -76.70080743 777.32988807 -80.96770859 777.34775543 C-84.98144804 777.36423632 -88.9949439 777.36639162 -93.00870514 777.35761642 C-94.4800723 777.3568461 -95.95145256 777.36118819 -97.42278671 777.37107468 C-99.43480255 777.38379927 -101.4469163 777.37612381 -103.45895386 777.36749268 C-104.58387678 777.36895924 -105.70879971 777.3704258 -106.8678112 777.3719368 C-112.74715028 776.67378522 -118.10570971 773.44912197 -122 769 C-125.24072542 763.55523282 -128.04144265 758.11972063 -128.25048828 751.71411133 C-128.28262421 750.85162277 -128.31476013 749.98913422 -128.34786987 749.10050964 C-128.38002594 748.16628677 -128.41218201 747.2320639 -128.4453125 746.26953125 C-128.92180384 734.37581004 -129.85006949 722.5446753 -130.875 710.6875 C-131.0541499 708.57733463 -131.23301965 706.46714546 -131.41162109 704.35693359 C-132.43860422 692.27555552 -133.51313411 680.19883358 -134.625 668.125 C-138.44443598 626.57998816 -138.44443598 626.57998816 -138 613 C-138.62455078 613.02094727 -139.24910156 613.04189453 -139.89257812 613.06347656 C-142.7615506 613.14735844 -145.63026408 613.19888511 -148.5 613.25 C-149.48226562 613.28351562 -150.46453125 613.31703125 -151.4765625 613.3515625 C-158.96449344 613.45140158 -164.21194102 612.19268625 -169.98828125 607.32421875 C-170.42527344 606.78410156 -170.86226563 606.24398437 -171.3125 605.6875 C-171.76238281 605.15511719 -172.21226562 604.62273438 -172.67578125 604.07421875 C-177.53638726 596.46070315 -177.4673867 589.74331775 -177.46875 580.8515625 C-177.4758636 579.47064917 -177.48356432 578.08973875 -177.49182129 576.70883179 C-177.50522241 573.82240574 -177.50685494 570.93625301 -177.50097656 568.04980469 C-177.49508663 564.372356 -177.5256605 560.69623038 -177.56609344 557.01903725 C-177.59209395 554.16888512 -177.5948368 551.31904632 -177.59120178 548.46879196 C-177.59369186 546.4609424 -177.61829843 544.45315888 -177.64343262 542.44546509 C-177.57698824 533.60541444 -176.17372015 527.36672455 -169.97265625 520.87890625 C-169.34230469 520.44449219 -168.71195312 520.01007812 -168.0625 519.5625 C-167.43472656 519.11003906 -166.80695313 518.65757812 -166.16015625 518.19140625 C-159.89361001 514.73517369 -154.10353634 514.72366369 -147.12939453 514.77294922 C-146.02841871 514.77270815 -144.92744289 514.77246708 -143.79310417 514.7722187 C-140.23959058 514.773708 -136.68628842 514.78892343 -133.1328125 514.8046875 C-130.93481548 514.80762912 -128.73681706 514.80966883 -126.53881836 514.81079102 C-118.4008575 514.82126458 -110.26292666 514.84918707 -102.125 514.875 C-83.93375 514.91625 -65.7425 514.9575 -47 515 C-47 461.87 -47 408.74 -47 354 C-47.66 354 -48.32 354 -49 354 C-49.25136719 354.55429687 -49.50273437 355.10859375 -49.76171875 355.6796875 C-59.32676 373.60282473 -78.99861085 384.12111511 -97.6875 389.9375 C-118.55610014 396.2559846 -143.40037032 394.74698565 -163 385 C-164.62035156 384.20916016 -164.62035156 384.20916016 -166.2734375 383.40234375 C-173.5764453 379.66572321 -179.80960717 375.35946761 -186 370 C-187.12148438 369.09507812 -187.12148438 369.09507812 -188.265625 368.171875 C-201.17887548 357.42588334 -209.14084884 343.08955273 -216 328 C-216.47904785 326.95658447 -216.47904785 326.95658447 -216.96777344 325.89208984 C-222.11045323 313.95351173 -221.01704461 301.65441041 -220.6852417 288.9598999 C-220.38751557 275.63110866 -222.02373939 266.9380845 -230 256 C-240.98661996 234.31572647 -241.40473465 206.22383795 -236 183 C-235.63455078 181.22109375 -235.63455078 181.22109375 -235.26171875 179.40625 C-228.20148895 148.62230965 -206.6350056 119.90867177 -180.25488281 102.87304688 C-167.85922956 95.23749076 -155.0899007 89.59112911 -141 86 C-140.84144531 85.05640625 -140.68289063 84.1128125 -140.51953125 83.140625 C-138.95640423 74.53910833 -136.83797875 66.91648477 -133 59 C-132.49597656 57.95199219 -131.99195313 56.90398437 -131.47265625 55.82421875 C-118.0415261 29.43599835 -94.28492248 9.5401541 -66.23876953 0.22167969 C-45.85566085 -6.20077912 -20.40999944 -7.07484587 0 0 Z " transform="translate(539,129)" style="fill: #14282F;"/><path d="M0 0 C2.8125 2.3125 2.8125 2.3125 3.8125 4.3125 C4.85535156 4.73402344 5.89820313 5.15554687 6.97265625 5.58984375 C11.14267263 7.28534492 14.02224587 9.79304154 17.25 12.875 C17.79076172 13.36935547 18.33152344 13.86371094 18.88867188 14.37304688 C20.24298092 15.63832423 21.53382352 16.97083453 22.8125 18.3125 C22.8125 18.9725 22.8125 19.6325 22.8125 20.3125 C23.4725 20.3125 24.1325 20.3125 24.8125 20.3125 C26.36627565 22.49205956 27.7606529 24.6420252 29.125 26.9375 C29.52654297 27.60885986 29.92808594 28.28021973 30.34179688 28.97192383 C34.10461689 35.46643568 36.65964933 42.11390558 38.8125 49.3125 C38.99353271 49.90297119 39.17456543 50.49344238 39.36108398 51.10180664 C39.9472686 53.97249444 39.92397568 56.67965538 39.91015625 59.609375 C39.90693359 60.81464844 39.90371094 62.01992187 39.90039062 63.26171875 C39.89201172 64.51597656 39.88363281 65.77023438 39.875 67.0625 C39.87048828 68.33222656 39.86597656 69.60195312 39.86132812 70.91015625 C39.84954556 74.04431836 39.83309416 77.17838541 39.8125 80.3125 C41.2975 79.8175 41.2975 79.8175 42.8125 79.3125 C64.71170588 78.07337192 84.47715638 84.27292564 101.0625 98.8125 C104.65553727 102.12231486 107.77688864 105.49630286 110.8125 109.3125 C111.59238281 110.08207031 112.37226562 110.85164063 113.17578125 111.64453125 C129.27046 127.92996174 137.07222334 149.06797495 137.0612793 171.71337891 C136.79822271 191.61862479 130.19864405 212.23292808 116.8125 227.3125 C116.1525 227.6425 115.4925 227.9725 114.8125 228.3125 C115.44695379 231.72878963 116.27637949 234.99691438 117.3125 238.3125 C122.77123084 255.78043868 120.5829934 274.78440967 112.3125 291 C102.21425354 309.39675779 85.94385331 320.49514528 66.09765625 326.421875 C49.8363296 330.35222778 32.31196999 327.45424003 17.94921875 319.36328125 C13.08883805 316.18557283 8.91952826 312.40098638 4.8125 308.3125 C6.11650989 304.40047032 7.47550853 304.16087111 11.0625 302.25 C18.18864689 298.25867254 24.45087628 293.41205966 30.8125 288.3125 C31.5653125 288.745625 32.318125 289.17875 33.09375 289.625 C42.21288392 294.40590516 49.64959065 295.72939509 59.8125 294.3125 C63.23051133 293.23721211 66.34058472 291.98264918 69.5546875 290.40625 C71.8125 289.3125 71.8125 289.3125 73.8125 289.3125 C74.85635696 286.65845936 74.85635696 286.65845936 74.8125 283.3125 C71.55856064 277.23136743 65.79543506 274.22398177 59.8125 271.3125 C58.636875 270.714375 57.46125 270.11625 56.25 269.5 C55.445625 269.108125 54.64125 268.71625 53.8125 268.3125 C55.27472002 265.03178301 57.15126752 262.64154172 59.5 259.9375 C68.34459761 249.03452331 74.71494122 235.52594921 73.8125 221.3125 C72.63929541 219.9305446 72.63929541 219.9305446 69.375 219.9375 C60.53125098 220.11090684 53.56363901 225.78071667 47.37890625 231.59765625 C43.9662895 235.20765418 40.94259112 239.05112108 37.93139648 242.99755859 C32.11099715 250.62115666 25.62220034 257.56002404 18.8125 264.3125 C18.214375 264.910625 17.61625 265.50875 17 266.125 C16.608125 266.516875 16.21625 266.90875 15.8125 267.3125 C15.1525 266.9825 14.4925 266.6525 13.8125 266.3125 C14.39 265.405 14.9675 264.4975 15.5625 263.5625 C21.51048868 252.91984883 22.35551533 243.19850212 21.8125 231.3125 C10.93942849 233.12755963 1.4668529 236.38079041 -5.6875 245.1875 C-11.11987784 253.39886882 -12.08287267 261.58967115 -11.1875 271.3125 C-10.40944921 275.06413572 -9.40963882 278.68245672 -8.1875 282.3125 C-9.53605962 282.96996104 -10.89174031 283.61281975 -12.25 284.25 C-13.00410156 284.60964844 -13.75820313 284.96929687 -14.53515625 285.33984375 C-17.1875 286.3125 -17.1875 286.3125 -24.1875 287.3125 C-24.1875 268.5025 -24.1875 249.6925 -24.1875 230.3125 C-19.5675 228.6625 -14.9475 227.0125 -10.1875 225.3125 C-6.87923233 223.77031895 -3.69691934 222.23231231 -0.5 220.5 C0.30816162 220.06695557 1.11632324 219.63391113 1.94897461 219.18774414 C11.62055547 213.90907311 19.82263809 207.5716972 27.81640625 200 C29.8125 198.3125 29.8125 198.3125 31.8125 198.3125 C32.07675781 197.71824219 32.34101562 197.12398437 32.61328125 196.51171875 C33.85668284 194.23147413 35.10434276 192.88184481 37 191.125 C41.06657762 187.19511406 44.43651433 182.83775739 47.8125 178.3125 C48.38097656 178.65023437 48.94945312 178.98796875 49.53515625 179.3359375 C59.7041341 185.2098379 69.4295237 187.06268248 81.10546875 184.625 C87.61659368 182.64442968 92.71421857 179.81098362 97.8125 175.3125 C95.75519718 168.62917163 90.56710908 165.80324003 84.8125 162.3125 C78.53905106 159.3453282 72.65870329 158.06346799 65.8125 157.3125 C66.29460937 156.3225 66.77671875 155.3325 67.2734375 154.3125 C67.91184623 152.97935235 68.54984513 151.64600839 69.1875 150.3125 C69.50460937 149.66410156 69.82171875 149.01570312 70.1484375 148.34765625 C73.2437201 141.83466578 75.1201856 135.61992398 74.9375 128.3125 C74.91945313 127.36375 74.90140625 126.415 74.8828125 125.4375 C74.85960937 124.73625 74.83640625 124.035 74.8125 123.3125 C63.97160937 124.15702089 56.10759238 126.83391432 48.4453125 134.76171875 C43.95815941 140.07953859 40.03014224 145.79342539 36.11669922 151.53881836 C32.60130176 156.68630993 28.82437352 161.54499205 24.8125 166.3125 C24.13832031 167.12203125 23.46414063 167.9315625 22.76953125 168.765625 C9.55089077 184.07902272 -5.05204913 193.4784104 -24.1875 200.3125 C-24.1875 165.3325 -24.1875 130.3525 -24.1875 94.3125 C-21.5475 92.9925 -18.9075 91.6725 -16.1875 90.3125 C-7.47345206 84.01828632 -1.39870383 75.93324282 0.8125 65.3125 C1.07385114 61.95770167 1.1581907 58.6630406 0.8125 55.3125 C-0.35225062 53.93478238 -0.35225062 53.93478238 -3.5625 54 C-9.18493283 54.05065255 -14.05144811 56.20894511 -19.1875 58.3125 C-20.85416667 58.97916667 -22.52083333 59.64583333 -24.1875 60.3125 C-24.32285156 59.42949219 -24.45820312 58.54648438 -24.59765625 57.63671875 C-26.27908229 48.26302028 -29.0019007 40.0820336 -36.18359375 33.4765625 C-38.33449396 31.9461705 -38.33449396 31.9461705 -41.8125 32.875 C-45.60113155 34.4886764 -45.66567053 34.7846226 -47.1875 38.3125 C-47.5896875 39.0240625 -47.991875 39.735625 -48.40625 40.46875 C-51.94798143 46.947527 -53.3461897 53.00440158 -54.1875 60.3125 C-56.65780271 59.34186779 -59.10050388 58.35256208 -61.51171875 57.2421875 C-67.59193654 54.52870188 -72.56080303 53.80492321 -79.1875 54.3125 C-81.22624154 58.38998307 -80.79029064 63.30434606 -79.50390625 67.58984375 C-73.95238771 80.69695599 -66.64821602 87.38987999 -54.1875 94.3125 C-54.1875 129.2925 -54.1875 164.2725 -54.1875 200.3125 C-81.07177559 191.3510748 -100.2809856 172.680694 -116.1875 149.75 C-124.02843777 138.46450287 -132.19233628 126.88573329 -146.1875 123.3125 C-148.51444964 122.93718554 -150.84726685 122.59332798 -153.1875 122.3125 C-156.65033391 134.92509829 -151.1236712 146.31598614 -145.1875 157.3125 C-146.15429688 157.45945312 -147.12109375 157.60640625 -148.1171875 157.7578125 C-155.78858048 159.03983225 -161.80402841 160.61131604 -168.33203125 165.10546875 C-170.1875 166.3125 -170.1875 166.3125 -172.1875 166.3125 C-172.455625 166.89 -172.72375 167.4675 -173 168.0625 C-174.1875 170.3125 -174.1875 170.3125 -175.875 172.375 C-176.308125 173.014375 -176.74125 173.65375 -177.1875 174.3125 C-176.45571039 177.6058705 -176.45571039 177.6058705 -173.1328125 179.1015625 C-171.86436551 179.72381952 -170.59064701 180.33541878 -169.3125 180.9375 C-168.35537109 181.40542969 -168.35537109 181.40542969 -167.37890625 181.8828125 C-158.74050097 186.06675827 -149.22531117 186.80953661 -139.86328125 184.48828125 C-137.24416703 183.52710564 -134.72216865 182.47581526 -132.1875 181.3125 C-130.52340664 180.63943574 -128.85741953 179.97097626 -127.1875 179.3125 C-126.775 179.75529297 -126.3625 180.19808594 -125.9375 180.65429688 C-121.96166964 184.91855243 -117.9725467 189.16992609 -113.97265625 193.41162109 C-112.6173947 194.8547374 -111.27451427 196.3094931 -109.9375 197.76953125 C-96.1124547 212.42778241 -76.22761703 224.1063859 -57.1875 230.3125 C-56.1975 230.6425 -55.2075 230.9725 -54.1875 231.3125 C-54.1875 249.7925 -54.1875 268.2725 -54.1875 287.3125 C-60.10993383 286.46643802 -63.83485202 285.47234041 -69.1875 283.3125 C-68.8575 282.19875 -68.5275 281.085 -68.1875 279.9375 C-65.80016595 268.82586432 -65.37080417 256.86397053 -71.296875 246.8671875 C-77.64500647 238.28934043 -85.18214537 233.78982885 -95.6640625 231.85546875 C-97.49805176 231.61244897 -99.34272611 231.45172822 -101.1875 231.3125 C-100.67547832 245.5431716 -98.51455886 255.83990142 -91.1875 268.3125 C-94.03655441 267.0165639 -96.10909788 265.64669618 -98.32421875 263.44140625 C-98.89696533 262.87260742 -99.46971191 262.30380859 -100.05981445 261.71777344 C-100.65882568 261.1096582 -101.25783691 260.50154297 -101.875 259.875 C-102.49785889 259.24754883 -103.12071777 258.62009766 -103.76245117 257.97363281 C-108.15776595 253.49240315 -112.20464153 248.82332178 -116.109375 243.90625 C-128.88343663 227.73908276 -128.88343663 227.73908276 -147.34375 220.0390625 C-149.42625062 219.95629689 -149.42625062 219.95629689 -152.1875 220.3125 C-153.59553752 221.49754927 -153.59553752 221.49754927 -153.375 224.875 C-153.10290012 241.89635901 -142.45449554 254.77876518 -132.1875 267.3125 C-134.2983175 268.37763602 -136.41503096 269.41950713 -138.5546875 270.42578125 C-144.43240692 273.23646639 -149.73538819 275.90086618 -153.625 281.3125 C-154.43334768 284.18662509 -154.36621753 285.53904699 -153.1875 288.3125 C-145.34131629 293.98846269 -135.7767506 296.51785157 -126.1953125 294.99609375 C-121.74747925 294.03556945 -117.99908674 292.35459662 -114.046875 290.1171875 C-112.1875 289.3125 -112.1875 289.3125 -108.1875 289.3125 C-105.4375 290.6875 -105.4375 290.6875 -103.1875 292.3125 C-103.1875 292.9725 -103.1875 293.6325 -103.1875 294.3125 C-102.12015625 294.70308594 -102.12015625 294.70308594 -101.03125 295.1015625 C-98.02327502 296.38243097 -95.43576239 297.91965706 -92.6875 299.6875 C-91.7696875 300.27273438 -90.851875 300.85796875 -89.90625 301.4609375 C-87.21840027 303.29145585 -84.69821482 305.24752803 -82.1875 307.3125 C-92.1208334 318.66488103 -107.18190586 326.0566462 -122.1875 327.3125 C-142.36662198 328.45266386 -158.73708498 325.21264641 -174.9375 312.625 C-188.09481514 300.2650979 -194.91759468 284.52472703 -199.1875 267.3125 C-199.8475 267.3125 -200.5075 267.3125 -201.1875 267.3125 C-200.72965212 255.44003073 -199.63541828 243.73940454 -196.3046875 232.2734375 C-196.13622207 228.01687759 -198.26714357 225.72811636 -200.8125 222.5625 C-201.74942398 221.31857976 -202.68173744 220.07117327 -203.609375 218.8203125 C-204.05861328 218.21735352 -204.50785156 217.61439453 -204.97070312 216.99316406 C-217.34666615 199.89923761 -218.65284739 173.26306827 -215.69140625 153.13671875 C-215.03377345 150.09377376 -214.23061459 147.24415673 -213.1875 144.3125 C-212.8471875 143.34183594 -212.506875 142.37117187 -212.15625 141.37109375 C-204.42492931 121.33757022 -191.45183324 103.84356412 -173.1875 92.3125 C-171.79917969 91.41724609 -171.79917969 91.41724609 -170.3828125 90.50390625 C-157.34661429 82.46434104 -144.96278115 79.12293313 -129.8125 79.25 C-128.27916016 79.25676758 -128.27916016 79.25676758 -126.71484375 79.26367188 C-124.20566806 79.275397 -121.6966151 79.29180824 -119.1875 79.3125 C-119.2189209 78.33978149 -119.2189209 78.33978149 -119.25097656 77.34741211 C-119.89514176 54.32258343 -116.72457498 35.24248675 -101.1875 17.3125 C-100.58292969 16.56484375 -99.97835937 15.8171875 -99.35546875 15.046875 C-76.24497794 -12.62923212 -30.33753434 -20.94587401 0 0 Z " transform="translate(546.1875,164.6875)" style="fill: #5FC95F;"/><path d="M0 0 C39.27 0 78.54 0 119 0 C119 9.19805425 118.84886362 18.16223079 118.1953125 27.3046875 C118.07020294 29.14532524 118.07020294 29.14532524 117.94256592 31.02314758 C117.7196962 34.29986183 117.49314833 37.5762962 117.26515961 40.85265732 C116.83919879 46.9987843 116.4263531 53.14580766 116.015625 59.29296875 C115.94771318 60.306981 115.94771318 60.306981 115.87842941 61.34147835 C114.95267732 75.21659943 114.23350151 89.09862163 113.68408203 102.99365234 C113.62012594 104.46842486 113.55616164 105.94319702 113.4921875 107.41796875 C113.44433105 108.65313232 113.39647461 109.8882959 113.34716797 111.16088867 C112.92577664 115.82078929 111.9176107 120.41194649 111 125 C61.005 125.495 61.005 125.495 10 126 C8.13758116 108.61742413 6.35951587 91.29339985 5 73.875 C4.66347572 69.62483819 4.32433998 65.37488786 3.984375 61.125 C3.90169373 60.08818085 3.81901245 59.05136169 3.73382568 57.98312378 C3.22015809 51.58913395 2.66966368 45.1997402 2.078125 38.8125 C2.00686401 38.03746124 1.93560303 37.26242249 1.86218262 36.46389771 C1.53796781 32.94746844 1.2067216 29.43210673 0.86328125 25.91748047 C0.04888246 17.16154961 0 8.88364067 0 0 Z " transform="translate(432,751)" style="fill: #DE8658;"/><path d="M0 0 C75.57 0 151.14 0 229 0 C229 13.53 229 27.06 229 41 C153.43 41 77.86 41 0 41 C0 27.47 0 13.94 0 0 Z " transform="translate(392,673)" style="fill: #DD865D;"/><path d="M0 0 C49.83 0 99.66 0 151 0 C151 9.80219317 150.79157867 19.0252797 149.75 28.6875 C149.54532049 30.70324539 149.34070244 32.71899753 149.13781738 34.73492432 C148.99235608 36.17913547 148.84609991 37.62326676 148.69909668 39.06732178 C147.83917278 47.52247415 147.03277493 55.98238956 146.24963379 64.44497681 C146.09050513 66.15335333 145.92919668 67.86152921 145.76501465 69.56942749 C143.6721465 91.34726446 142.45587674 113.16184892 141 135 C103.05 135 65.1 135 26 135 C26 134.67 26 134.34 26 134 C54.38 134 82.76 134 112 134 C112.57677817 128.23221833 113.1246478 122.66704328 113.359375 116.91015625 C113.42089297 115.50713972 113.48293776 114.10414623 113.54541016 112.70117188 C113.57822083 111.95150146 113.61103149 111.20183105 113.64483643 110.42944336 C115.14839422 76.58848497 117.70699039 42.79172056 120 9 C80.73 9 41.46 9 1 9 C1 11.97 1 14.94 1 18 C0.67 18 0.34 18 0 18 C0 12.06 0 6.12 0 0 Z " transform="translate(431,742)" style="fill: #974730;"/><path d="M0 0 C2.82425197 2.35946079 5.04426559 5.07421853 7.27148438 7.99023438 C7.9748291 8.89854004 7.9748291 8.89854004 8.69238281 9.82519531 C12.78357854 15.25275394 16.41848707 20.98841177 18.70898438 27.42773438 C18.37898437 28.08773437 18.04898438 28.74773437 17.70898438 29.42773438 C17.2475 28.79867187 16.78601563 28.16960937 16.31054688 27.52148438 C4.89846306 12.54594356 -11.48655634 2.19309603 -30.29101562 -0.57226562 C-52.29236395 -2.39204346 -69.78542018 3.19226798 -86.81054688 17.14648438 C-89.37760765 19.38719389 -89.37760765 19.38719389 -91.49023438 22.20898438 C-92.08449219 22.94117188 -92.67875 23.67335937 -93.29101562 24.42773438 C-93.95101562 24.42773438 -94.61101562 24.42773438 -95.29101562 24.42773438 C-95.51789063 25.27335937 -95.74476563 26.11898437 -95.97851562 26.99023438 C-97.29101562 30.42773438 -97.29101562 30.42773438 -99.66601562 33.61523438 C-107.64880016 44.39199349 -110.63952574 61.28887232 -109.29101562 74.42773438 C-108.02516818 82.58236029 -106.11450503 90.09129278 -102.29101562 97.42773438 C-102.99226563 97.234375 -103.69351563 97.04101562 -104.41601562 96.84179688 C-105.36476563 96.58140625 -106.31351562 96.32101562 -107.29101562 96.05273438 C-108.21914063 95.7975 -109.14726562 95.54226563 -110.10351562 95.27929688 C-111.15539062 94.99828125 -112.20726562 94.71726562 -113.29101562 94.42773438 C-114.49242187 94.07195312 -115.69382812 93.71617187 -116.93164062 93.34960938 C-134.12803984 89.10766759 -151.18652971 92.44240011 -166.13964844 101.22705078 C-176.08195675 107.27036048 -185.91564944 113.67700201 -191.29101562 124.42773438 C-191.95101563 124.42773438 -192.61101562 124.42773438 -193.29101562 124.42773438 C-193.40703125 124.98976563 -193.52304687 125.55179688 -193.64257812 126.13085938 C-194.36678893 128.69613622 -195.42657931 130.8190495 -196.66601562 133.17773438 C-202.83459668 145.33712757 -204.63132799 156.41556768 -204.54101562 170.05273438 C-204.54875 171.22835937 -204.55648438 172.40398437 -204.56445312 173.61523438 C-204.55025249 179.93451837 -204.17353659 185.39317239 -202.29101562 191.42773438 C-201.94683594 192.58015625 -201.60265625 193.73257813 -201.24804688 194.91992188 C-198.60596026 202.72895604 -195.47083399 209.01571252 -190.29101562 215.42773438 C-189.44410156 216.48347656 -189.44410156 216.48347656 -188.58007812 217.56054688 C-185.84194856 220.97433164 -185.84194856 220.97433164 -182.29101562 223.42773438 C-183.20980417 225.80127146 -184.15763016 228.14511026 -185.24414062 230.44726562 C-192.32205912 245.52745764 -191.77316124 260.83952481 -186.29101562 276.42773438 C-184.79166555 279.8681694 -183.15930937 283.17353421 -181.29101562 286.42773438 C-189.47339409 283.01377148 -194.79255711 274.37930912 -198.41601562 266.65429688 C-200.3403114 261.75765139 -200.51893119 257.08955033 -200.54101562 251.86523438 C-200.54496338 251.06255127 -200.54891113 250.25986816 -200.55297852 249.43286133 C-200.49844486 243.84400498 -199.76607711 238.97890407 -197.84960938 233.68945312 C-197.15137799 230.86234841 -197.40678768 229.19479594 -198.29101562 226.42773438 C-199.65905331 224.36968943 -199.65905331 224.36968943 -201.41601562 222.42773438 C-216.96057919 203.05288821 -219.36895894 178.20662576 -217.07275391 154.14013672 C-216.52681088 150.42983499 -215.54600147 146.95485185 -214.29101562 143.42773438 C-213.95070313 142.45707031 -213.61039062 141.48640625 -213.25976562 140.48632812 C-205.52844494 120.45280459 -192.55534887 102.9587985 -174.29101562 91.42773438 C-172.90269531 90.53248047 -172.90269531 90.53248047 -171.48632812 89.61914062 C-158.45012991 81.57957542 -146.06629677 78.2381675 -130.91601562 78.36523438 C-129.38267578 78.37200195 -129.38267578 78.37200195 -127.81835938 78.37890625 C-125.30918368 78.39063137 -122.80013073 78.40704261 -120.29101562 78.42773438 C-120.32243652 77.45501587 -120.32243652 77.45501587 -120.35449219 76.46264648 C-120.99865738 53.4378178 -117.82809061 34.35772112 -102.29101562 16.42773438 C-101.68644531 15.68007812 -101.081875 14.93242187 -100.45898438 14.16210938 C-77.14932511 -13.75251313 -30.08839805 -22.19635922 0 0 Z " transform="translate(547.291015625,165.572265625)" style="fill: #F2F9F6;"/><path d="M0 0 C4.14171668 1.38057223 5.78380938 4.27559243 8.25 7.6875 C8.98198608 8.69864868 8.98198608 8.69864868 9.72875977 9.73022461 C23.49873841 29.19922332 28.92143286 51.82798994 25.17944336 75.38647461 C22.4233387 90.32225134 16.18520157 105.52630907 6 117 C5.01 117.495 5.01 117.495 4 118 C4.63445379 121.41628963 5.46387949 124.68441438 6.5 128 C11.95873084 145.46793868 9.7704934 164.47190967 1.5 180.6875 C-8.59824646 199.08425779 -24.86864669 210.18264528 -44.71484375 216.109375 C-60.9761704 220.03972778 -78.50053001 217.14174003 -92.86328125 209.05078125 C-97.72366195 205.87307283 -101.89297174 202.08848638 -106 198 C-104.65993331 193.97979992 -102.9169977 193.57040484 -99.25 191.5625 C-96.00349623 189.77532366 -93.166323 188.14393337 -90.359375 185.71484375 C-88 184 -88 184 -86.015625 184.1015625 C-85.35046875 184.39804687 -84.6853125 184.69453125 -84 185 C-83.16984375 185.35835937 -82.3396875 185.71671875 -81.484375 186.0859375 C-80.13085938 186.72402344 -80.13085938 186.72402344 -78.75 187.375 C-71.50490003 190.70408976 -65.06024 193.52422194 -57 194 C-55.63875 194.09667969 -55.63875 194.09667969 -54.25 194.1953125 C-40.97353692 194.71392434 -27.4060268 189.41053428 -17.35546875 180.7109375 C-5.27652551 168.09114606 -3.3304761 153.47649498 -3.60546875 136.75 C-3.93252514 129.49053742 -5.90733064 123.57895118 -9 117 C-9.67525278 115.33679349 -10.34495995 113.6712704 -11 112 C-10.38125 111.43345703 -10.38125 111.43345703 -9.75 110.85546875 C4.01514593 97.73556403 10.80213512 82.69483371 11.265625 63.7109375 C11.27083976 61.59895835 11.26560538 59.48692793 11.25 57.375 C11.25773438 56.32054687 11.26546875 55.26609375 11.2734375 54.1796875 C11.25887473 48.29632786 10.79286906 42.87181126 9.42871094 37.14306641 C9 35 9 35 9 31 C8.34 31 7.68 31 7 31 C5.1107384 24.78118057 4 19.51628693 4 13 C3.17135518 9.60724666 2.11614002 6.30793829 1 3 C0.505 1.515 0.505 1.515 0 0 Z " transform="translate(657,275)" style="fill: #218D53;"/><path d="M0 0 C75.24 0 150.48 0 228 0 C228 3.96 228 7.92 228 12 C152.76 12 77.52 12 0 12 C0 8.04 0 4.08 0 0 Z " transform="translate(393,674)" style="fill: #FDFCFB;"/><path d="M0 0 C75.57 0 151.14 0 229 0 C229 0.33 229 0.66 229 1 C153.76 1 78.52 1 1 1 C1 5.29 1 9.58 1 14 C1.66 14 2.32 14 3 14 C4.0738707 15.50520381 5.08377501 17.0562635 6.0625 18.625 C9.7772688 24.10389541 14.26341634 28.42049232 20.66768551 30.55612278 C23.91811198 31.17473158 27.13417196 31.15507882 30.43031311 31.16062927 C31.18142677 31.16571709 31.93254043 31.17080491 32.70641512 31.17604691 C35.22492924 31.19175084 37.74341472 31.20029108 40.26196289 31.20874023 C42.06734396 31.21828049 43.87272321 31.22817173 45.67810059 31.23838806 C51.60959711 31.26975765 57.54110759 31.29004024 63.47265625 31.30859375 C64.48261052 31.31189107 65.49256479 31.31518839 66.53312373 31.31858563 C76.06260492 31.3493691 85.59208933 31.37606991 95.12160587 31.39300442 C107.29847914 31.41489903 119.47491082 31.45684731 131.65160757 31.52644199 C140.21993958 31.57374495 148.78815273 31.5979465 157.35661119 31.6052013 C162.47061582 31.61014855 167.58412258 31.6251411 172.6979847 31.6649456 C177.51378514 31.70193593 182.32880591 31.7101811 187.14472198 31.69693947 C188.90588698 31.69699321 190.66708762 31.70720629 192.42812157 31.7286911 C203.2518861 31.85361239 212.25354236 31.16094862 220.65611362 23.48761654 C222.21212637 21.83689863 222.21212637 21.83689863 224.125 19.125 C225.40927835 17.41110541 226.69858519 15.70091889 228 14 C228.33 14 228.66 14 229 14 C229 22.91 229 31.82 229 41 C153.43 41 77.86 41 0 41 C0 27.47 0 13.94 0 0 Z " transform="translate(392,673)" style="fill: #984B38;"/><path d="M0 0 C0.33 0 0.66 0 1 0 C1.08636719 0.89460938 1.17273438 1.78921875 1.26171875 2.7109375 C2.92429795 17.01827046 8.10585064 24.8945193 18 35 C17.67 34.01 17.34 33.02 17 32 C16.65772583 30.66893378 16.32248257 29.33599921 16 28 C19.88433735 31.50843373 19.88433735 31.50843373 20.5 34.125 C20.7475 35.053125 20.7475 35.053125 21 36 C22.32627982 36.68059096 23.66105717 37.34467235 25 38 C26.35313287 39.0584991 27.68513803 40.14432062 29 41.25 C42.12173186 51.43688746 56.78364142 54.49616066 73.19140625 52.5390625 C81.38812313 50.96584007 88.6380808 48.49438476 95 43 C95 42.34 95 41.68 95 41 C95.66 41 96.32 41 97 41 C97 41.66 97 42.32 97 43 C97.7115625 43.26039063 98.423125 43.52078125 99.15625 43.7890625 C102.16422498 45.06993097 104.75173761 46.60715706 107.5 48.375 C108.87671875 49.25285156 108.87671875 49.25285156 110.28125 50.1484375 C112.96909973 51.97895585 115.48928518 53.93502803 118 56 C108.0666666 67.35238103 93.00559414 74.7441462 78 76 C57.82087802 77.14016386 41.45041502 73.90014641 25.25 61.3125 C12.09268486 48.9525979 5.26990532 33.21222703 1 16 C0.34 16 -0.32 16 -1 16 C-0.67 10.72 -0.34 5.44 0 0 Z " transform="translate(346,416)" style="fill: #208B54;"/><path d="M0 0 C4.95 0 9.9 0 15 0 C16.98973967 20.80182387 18.68787943 41.61678975 20.25512695 62.45462036 C21.38713081 77.47876979 22.60620103 92.48563543 24.13671875 107.47485352 C24.75869754 113.69071037 25.13306524 119.75258713 25 126 C20.05 126 15.1 126 10 126 C7.71884069 106.52373828 6.04521821 87.01933425 4.49023438 67.47338867 C4.32171942 65.35725076 4.15310037 63.24112114 3.984375 61.125 C3.90179443 60.08906204 3.81921387 59.05312408 3.73413086 57.98579407 C3.22020479 51.5909272 2.66974628 45.20063203 2.078125 38.8125 C2.00686401 38.03746124 1.93560303 37.26242249 1.86218262 36.46389771 C1.53796781 32.94746844 1.2067216 29.43210673 0.86328125 25.91748047 C0.05446245 17.22154242 -0.10375118 8.72547429 0 0 Z " transform="translate(432,751)" style="fill: #F9F8F6;"/><path d="M0 0 C9.63477404 0.40999038 18.28559337 2.56121001 25.47265625 9.30859375 C33.22188986 17.89022585 35.50706123 27.49377289 35.25 38.8125 C35.24484375 39.73998047 35.2396875 40.66746094 35.234375 41.62304688 C35.18859694 45.59143203 35.09398212 49.16503363 34 53 C24.50905705 52.63496373 16.03443555 48.67327543 9.5625 41.6875 C-0.2484224 29.46974009 -1.83637284 17.3853702 -1 2 C-0.67 1.34 -0.34 0.68 0 0 Z " transform="translate(443,284)" style="fill: #1D8253;"/><path d="M0 0 C3.16209057 6.32418114 1.70434612 18.78522365 -0.125 25.5 C-3.59478837 34.89263643 -9.48491973 44.47142434 -18.48828125 49.34765625 C-23.26912928 51.37171786 -27.83644811 52.55099549 -33 53 C-36.33201097 40.41570856 -36.01832846 26.95161666 -29.59375 15.31640625 C-23.13377362 5.92727391 -11.68601159 -1.32795586 0 0 Z " transform="translate(570,284)" style="fill: #1C8353;"/><path d="M0 0 C9.59762341 -0.23533618 16.76911012 1.74976267 24.3125 8 C31.41522551 14.98944441 35.21569744 21.95886774 35.49755859 31.96899414 C35.504549 38.85804347 35.14843773 44.70312454 32 51 C21.67705523 47.98324902 12.02282103 41.77652344 6.328125 32.55859375 C2.00952037 24.23892894 -0.17012555 17.12170165 -0.0625 7.75 C-0.05798828 7.00492187 -0.05347656 6.25984375 -0.04882812 5.4921875 C-0.03709246 3.6614236 -0.0191585 1.83070127 0 0 Z " transform="translate(445,396)" style="fill: #1F8850;"/><path d="M0 0 C3.19289309 6.38578619 1.42590008 15.50498452 -0.64404297 22.10083008 C-5.6612579 36.82446848 -14.60672631 43.89336498 -28 51 C-28.66 51 -29.32 51 -30 51 C-34.54655467 42.49991952 -35.38928717 33.45265304 -33.3515625 23.98828125 C-30.13877744 14.14397831 -24.37458129 8.17931199 -15.421875 3.1875 C-10.25830653 0.65568578 -5.72451873 -0.27924482 0 0 Z " transform="translate(568,396)" style="fill: #208852;"/><path d="M0 0 C1.13381104 0.00845947 1.13381104 0.00845947 2.29052734 0.01708984 C22.53675 0.45133671 40.86380475 10.23880475 54.9375 24.3125 C61.96231765 32.28183095 64.38538508 39.7842396 64.9375 50.3125 C62.8047134 47.64651674 60.67490718 44.97907623 58.5625 42.296875 C45.05363085 25.47538721 28.33492651 15.72868957 6.9375 13.3125 C-3.18491933 12.47971695 -14.37096797 13.48000491 -23.8125 17.4765625 C-26.0625 18.3125 -26.0625 18.3125 -29.0625 17.3125 C-20.59825346 7.42794905 -13.70278311 -0.10698135 0 0 Z " transform="translate(597.0625,243.6875)" style="fill: #F7FCF8;"/><path d="M0 0 C4.10084544 0.56229086 6.45399746 2.76132032 9.5625 5.375 C10.51253906 6.16648438 11.46257813 6.95796875 12.44140625 7.7734375 C16.61595395 11.40625 16.61595395 11.40625 18 13 C18 13.66 18 14.32 18 15 C18.66 15 19.32 15 20 15 C21.55377565 17.17955956 22.9481529 19.3295252 24.3125 21.625 C24.71404297 22.29635986 25.11558594 22.96771973 25.52929688 23.65942383 C29.29211689 30.15393568 31.84714933 36.80140558 34 44 C34.176521 44.58595947 34.35304199 45.17191895 34.53491211 45.77563477 C35.14649493 48.70063797 35.22137864 51.52904287 35.31640625 54.515625 C35.35830078 55.76601562 35.40019531 57.01640625 35.44335938 58.3046875 C35.48267578 59.60664063 35.52199219 60.90859375 35.5625 62.25 C35.60568359 63.56742188 35.64886719 64.88484375 35.69335938 66.2421875 C35.79941917 69.49468788 35.90148024 72.74726392 36 76 C35.09616577 76.48376099 35.09616577 76.48376099 34.17407227 76.97729492 C28.24428016 80.18486684 28.24428016 80.18486684 22.9375 84.3125 C21.968125 85.199375 20.99875 86.08625 20 87 C20.9296 79.4304 20.9296 79.4304 21.515625 75.84765625 C23.8558079 57.25830012 22.1384164 38.34921135 10.6875 22.875 C10.130625 22.25625 9.57375 21.6375 9 21 C9.33 20.34 9.66 19.68 10 19 C11.32 20.32 12.64 21.64 14 23 C10.60609732 15.51798728 6.8749525 9.12845547 1.5390625 2.86328125 C0 1 0 1 0 0 Z " transform="translate(551,170)" style="fill: #27914C;"/><path d="M0 0 C38.61 0 77.22 0 117 0 C117 0.66 117 1.32 117 2 C103.07412177 2.17771761 89.14814366 2.34320646 75.2219553 2.49477577 C68.75506638 2.56551381 62.28827073 2.64011651 55.8215332 2.72363281 C49.57761873 2.80412786 43.33366449 2.8743647 37.08955193 2.93757248 C34.71056829 2.96344135 32.33162147 2.99296961 29.95273018 3.02626419 C26.61377513 3.07236278 23.27492466 3.10529916 19.93579102 3.13525391 C18.4695076 3.16006584 18.4695076 3.16006584 16.97360229 3.18537903 C11.00110336 3.22211026 5.7854008 2.5030722 0 1 C0 0.67 0 0.34 0 0 Z " transform="translate(454,877)" style="fill: #221F1D;"/><path d="M0 0 C49.83 0 99.66 0 151 0 C151 17.25506757 151 17.25506757 150 24.4375 C149.90460938 25.18064453 149.80921875 25.92378906 149.7109375 26.68945312 C149.48238397 28.46074298 149.24256506 30.23057448 149 32 C148.67 32 148.34 32 148 32 C147.97254122 29.08326698 147.95294449 26.16680282 147.9375 23.25 C147.92912109 22.44433594 147.92074219 21.63867188 147.91210938 20.80859375 C147.88567453 14.09414313 148.4363184 7.7641792 149 1 C100.16 1 51.32 1 1 1 C1 3.31 1 5.62 1 8 C2.65 8 4.3 8 6 8 C6 8.33 6 8.66 6 9 C4.35 9 2.7 9 1 9 C1 11.97 1 14.94 1 18 C0.67 18 0.34 18 0 18 C0 12.06 0 6.12 0 0 Z " transform="translate(431,742)" style="fill: #7B4E41;"/><path d="M0 0 C3.88433735 3.50843373 3.88433735 3.50843373 4.5 6.125 C4.665 6.74375 4.83 7.3625 5 8 C6.32627982 8.68059096 7.66105717 9.34467235 9 10 C10.35313287 11.0584991 11.68513803 12.14432062 13 13.25 C26.28747769 23.56556209 40.81238354 26.3593881 57.375 24.49609375 C60.78664438 23.85133358 63.94624839 22.82815242 67.16015625 21.5234375 C69 21 69 21 72 22 C70.0848421 22.81604999 68.16781166 23.62770632 66.25 24.4375 C65.18265625 24.88996094 64.1153125 25.34242188 63.015625 25.80859375 C57.61820673 27.94099345 52.99533285 28.1828061 47.25 28.1875 C46.4765625 28.19974609 45.703125 28.21199219 44.90625 28.22460938 C36.28277291 28.24631276 29.50371569 26.09005109 21.875 22.1875 C21.19824219 21.85685547 20.52148438 21.52621094 19.82421875 21.18554688 C15.04754544 18.77873179 9.47502847 15.95005693 7 11 C6.360625 10.731875 5.72125 10.46375 5.0625 10.1875 C1.71698578 8.26129485 1.3381448 5.25113575 0.375 1.6875 C0.25125 1.130625 0.1275 0.57375 0 0 Z " transform="translate(362,444)" style="fill: #3BA651;"/><path d="M0 0 C0.33 0 0.66 0 1 0 C1.50954783 12.53110217 0.37697963 24.82494635 -0.86254883 37.27416992 C-1.00095801 38.66583853 -1.1392254 40.05752125 -1.27734375 41.44921875 C-1.34413834 42.12164108 -1.41093292 42.79406342 -1.47975159 43.48686218 C-1.9467088 48.26258633 -2.27542176 53.0199047 -2.5 57.8125 C-2.91218743 66.19364446 -3.93619062 74.4868562 -4.90966797 82.81884766 C-5.81014956 90.72950609 -6.42708161 98.60148357 -6.70898438 106.55786133 C-6.88346921 111.42800974 -7.3327828 116.17087882 -8 121 C-8.33 121 -8.66 121 -9 121 C-9.2042033 109.89360946 -8.57620298 98.94309174 -7.75 87.875 C-7.65212692 86.53171127 -7.65212692 86.53171127 -7.55227661 85.1612854 C-5.99049721 63.74868467 -4.03006316 42.37253252 -2 21 C-1.90793274 20.03032288 -1.81586548 19.06064575 -1.7210083 18.06158447 C-1.14900586 12.04089675 -0.57516228 6.02038664 0 0 Z " transform="translate(582,743)" style="fill: #312421;"/><path d="M0 0 C8.59638375 -0.73160713 15.17290445 3.0984955 22 8 C21.01 8.495 21.01 8.495 20 9 C17.96855359 8.06553465 15.96466413 7.06775224 14 6 C14 5.34 14 4.68 14 4 C7.93949386 2.9187609 7.93949386 2.9187609 2 4 C2.99 4.66 3.98 5.32 5 6 C4.67 6.99 4.34 7.98 4 9 C4.185625 9.804375 4.37125 10.60875 4.5625 11.4375 C5.08670054 14.50781745 4.42189873 15.32348474 3 18 C2.83249586 20.66709069 2.83249586 20.66709069 3 23 C3.66 23.33 4.32 23.66 5 24 C5.625 27.0625 5.625 27.0625 6 30 C3.2916555 27.63987122 2.14980073 25.40006885 0.875 22.0625 C0.54242188 21.20785156 0.20984375 20.35320312 -0.1328125 19.47265625 C-1.44682401 15.72594775 -2.15343117 12.47923902 -2.1875 8.5 C-2.20167969 7.7471875 -2.21585937 6.994375 -2.23046875 6.21875 C-1.97417278 3.75135827 -1.22845153 2.13643744 0 0 Z " transform="translate(393,287)" style="fill: #103727;"/><path d="M0 0 C4.10084544 0.56229086 6.45399746 2.76132032 9.5625 5.375 C10.51253906 6.16648438 11.46257813 6.95796875 12.44140625 7.7734375 C16.61595395 11.40625 16.61595395 11.40625 18 13 C18 13.66 18 14.32 18 15 C18.66 15 19.32 15 20 15 C21.47309111 17.10019014 22.81309635 19.17767729 24.125 21.375 C24.49753906 21.97828125 24.87007812 22.5815625 25.25390625 23.203125 C28 27.72965316 28 27.72965316 28 30 C27.34 30 26.68 30 26 30 C26 29.34 26 28.68 26 28 C25.34 28 24.68 28 24 28 C23.505 25.525 23.505 25.525 23 23 C22.34 23 21.68 23 21 23 C20.34 21.02 19.68 19.04 19 17 C17.35 17 15.7 17 14 17 C13.67 18.32 13.34 19.64 13 21 C12.731875 20.39414063 12.46375 19.78828125 12.1875 19.1640625 C9.3331181 13.0609433 5.91771571 8.07995521 1.57421875 2.93359375 C0 1 0 1 0 0 Z " transform="translate(551,170)" style="fill: #2E7C51;"/><path d="M0 0 C4.40209901 1.4367962 8.76731177 2.89155425 13.0625 4.625 C16.99128462 6.09925906 20.82034996 6.75328455 25 7 C25.9075 7.06445312 26.815 7.12890625 27.75 7.1953125 C37.80072063 7.58791877 46.2036497 4.62965805 55 0 C55.66 0 56.32 0 57 0 C56 3 56 3 53.1640625 4.5703125 C51.41222656 5.33988281 51.41222656 5.33988281 49.625 6.125 C48.46226562 6.64320313 47.29953125 7.16140625 46.1015625 7.6953125 C35.57057592 12.12522373 22.15901936 11.70662965 11.54736328 7.640625 C2.52990485 3.79485728 2.52990485 3.79485728 0 0 Z " transform="translate(575,462)" style="fill: #35A74E;"/><path d="M0 0 C0.33 0.99 0.66 1.98 1 3 C0.38511719 3.54527344 -0.22976563 4.09054687 -0.86328125 4.65234375 C-7.78991199 11.11498966 -10.85163772 15.69239241 -11.19921875 25.171875 C-11.369891 34.1517499 -11.369891 34.1517499 -10 43 C-8.53984709 42.71758359 -7.08190207 42.42373386 -5.625 42.125 C-4.40683594 41.88136719 -4.40683594 41.88136719 -3.1640625 41.6328125 C-0.81326077 41.13341068 -0.81326077 41.13341068 1 39 C2.32 39 3.64 39 5 39 C5 39.66 5 40.32 5 41 C-0.673142 43.45417612 -5.81839396 45.46246904 -12 46 C-15.37944703 33.23655274 -14.87738562 20.02688349 -8.5078125 8.203125 C-6.13864884 4.74144545 -3.35379604 2.49890685 0 0 Z " transform="translate(549,291)" style="fill: #238944;"/><path d="M0 0 C0.66 0 1.32 0 2 0 C2.02505615 0.75095947 2.0501123 1.50191895 2.07592773 2.27563477 C2.19254942 5.70473533 2.31497417 9.13360553 2.4375 12.5625 C2.47681641 13.74392578 2.51613281 14.92535156 2.55664062 16.14257812 C2.7898504 23.23518844 2.7898504 23.23518844 3.59765625 30.27734375 C3.79681641 31.62505859 3.79681641 31.62505859 4 33 C3.505 33.495 3.505 33.495 3 34 C2.90137397 35.39174359 2.8692102 36.78836143 2.8671875 38.18359375 C2.86525391 39.45106445 2.86525391 39.45106445 2.86328125 40.74414062 C2.86714844 41.63294922 2.87101563 42.52175781 2.875 43.4375 C2.87113281 44.32244141 2.86726562 45.20738281 2.86328125 46.11914062 C2.86457031 46.96541016 2.86585938 47.81167969 2.8671875 48.68359375 C2.86831543 49.46275146 2.86944336 50.24190918 2.87060547 51.04467773 C2.87854847 53.07974488 2.87854847 53.07974488 4 55 C2.02 55.495 2.02 55.495 0 56 C0 37.52 0 19.04 0 0 Z " transform="translate(522,396)" style="fill: #72D16F;"/><path d="M0 0 C4.23429508 3.02021402 6.95292085 6.45673935 9.6875 10.8125 C10.07744141 11.40353516 10.46738281 11.99457031 10.86914062 12.60351562 C13.44494158 16.64113866 14.88471687 20.34205282 16 25 C13.37815381 22.4530637 11.0078822 20.0100717 8.75 17.125 C5.97863677 13.70933894 2.60245086 11.22366233 -0.9140625 8.61328125 C-2.76889934 7.17873515 -4.3888319 5.69839695 -6 4 C-5.34 4 -4.68 4 -4 4 C-2.62689293 2.70766393 -1.28965176 1.37562854 0 0 Z " transform="translate(550,170)" style="fill: #F0FAF2;"/><path d="M0 0 C0.7528125 0.433125 1.505625 0.86625 2.28125 1.3125 C11.4715923 6.13073771 18.68485974 7.15476274 29 6 C31.00947045 5.36244768 33.01221621 4.70225354 35 4 C37.375 4.375 37.375 4.375 39 5 C38.67 5.66 38.34 6.32 38 7 C32.09492564 8.2098592 26.0716257 8.31194862 20.0625 8.5625 C19.09248047 8.60568359 18.12246094 8.64886719 17.12304688 8.69335938 C14.74881399 8.79862093 12.37449079 8.90075707 10 9 C9.67 8.34 9.34 7.68 9 7 C8.01 6.67 7.02 6.34 6 6 C5.67 6.66 5.34 7.32 5 8 C4.34 8.66 3.68 9.32 3 10 C0.0625 9.875 0.0625 9.875 -3 9 C-4.875 6.9375 -4.875 6.9375 -6 5 C-4.02 3.35 -2.04 1.7 0 0 Z " transform="translate(577,453)" style="fill: #63B961;"/><path d="M0 0 C0.66 0 1.32 0 2 0 C2 34.98 2 69.96 2 106 C-7 103 -7 103 -8 101 C-5.69 101.33 -3.38 101.66 -1 102 C-1 102.66 -1 103.32 -1 104 C-0.34 104 0.32 104 1 104 C0.67 69.68 0.34 35.36 0 0 Z " transform="translate(490,259)" style="fill: #72C975;"/><path d="M0 0 C0.33 0 0.66 0 1 0 C1.08636719 0.89460938 1.17273438 1.78921875 1.26171875 2.7109375 C2.22499886 11.00044892 3.46684557 19.50951055 9.66015625 25.64453125 C11 27 11 27 11 29 C10.34 29 9.68 29 9 29 C9.98623388 34.32566295 11.13061959 38.35433648 14 43 C13.67 43.99 13.34 44.98 13 46 C7.74045184 36.17026192 3.58947657 26.90305923 1 16 C0.34 16 -0.32 16 -1 16 C-0.67 10.72 -0.34 5.44 0 0 Z " transform="translate(346,416)" style="fill: #2D8155;"/><path d="M0 0 C0.66 0.66 1.32 1.32 2 2 C-5.4831948 1.0968558 -5.4831948 1.0968558 -8.79296875 0.4765625 C-12.45648972 -0.06783404 -15.9843644 -0.16907644 -19.6875 -0.1875 C-21.64236328 -0.20876953 -21.64236328 -0.20876953 -23.63671875 -0.23046875 C-27.13202234 -0.27058259 -27.13202234 -0.27058259 -30 2 C-32.76655324 2.14245897 -35.42653306 2.18769445 -38.1875 2.125 C-38.93708984 2.11597656 -39.68667969 2.10695313 -40.45898438 2.09765625 C-42.30612654 2.07412578 -44.15310412 2.03825561 -46 2 C-36.17404324 -7.82595676 -11.99198286 -3.15350092 0 0 Z " transform="translate(620,259)" style="fill: #72C271;"/><path d="M0 0 C0.33 0 0.66 0 1 0 C1.33 6.6 1.66 13.2 2 20 C3.32 19.67 4.64 19.34 6 19 C3.13691369 25.44194419 -1.65410689 29.63018288 -7 34 C-7.66 33.67 -8.32 33.34 -9 33 C-8.4225 32.0925 -7.845 31.185 -7.25 30.25 C-1.83078829 20.62655999 -0.32330314 10.92764619 0 0 Z " transform="translate(569,398)" style="fill: #5FCD6A;"/><path d="M0 0 C0.66 0.99 1.32 1.98 2 3 C-2.75 6 -2.75 6 -5 6 C-5 6.66 -5 7.32 -5 8 C-5.99 8 -6.98 8 -8 8 C-7.79375 8.598125 -7.5875 9.19625 -7.375 9.8125 C-7 12 -7 12 -9 15 C-9.99 15.66 -10.98 16.32 -12 17 C-11.01 17.99 -10.02 18.98 -9 20 C-12 20 -12 20 -13.60546875 18.6875 C-14.12753906 18.130625 -14.64960937 17.57375 -15.1875 17 C-15.71730469 16.443125 -16.24710938 15.88625 -16.79296875 15.3125 C-17.39044922 14.6628125 -17.39044922 14.6628125 -18 14 C-16.65993331 9.97979992 -14.9169977 9.57040484 -11.25 7.5625 C-7.17647938 5.320057 -3.55939205 2.99911738 0 0 Z " transform="translate(569,459)" style="fill: #2A8658;"/><path d="M0 0 C1.32 0.33 2.64 0.66 4 1 C4 1.99 4 2.98 4 4 C6.64 3.67 9.28 3.34 12 3 C12.24234375 3.64066406 12.4846875 4.28132813 12.734375 4.94140625 C14.79284627 10.25384557 17.03769679 15.13335901 20 20 C17.02521588 18.66081927 14.92471949 17.18092874 12.6171875 14.8828125 C12.00746094 14.27566406 11.39773438 13.66851562 10.76953125 13.04296875 C10.14433594 12.41003906 9.51914062 11.77710938 8.875 11.125 C8.24207031 10.49980469 7.60914063 9.87460937 6.95703125 9.23046875 C6.04630859 8.31587891 6.04630859 8.31587891 5.1171875 7.3828125 C4.56659668 6.82996582 4.01600586 6.27711914 3.44873047 5.70751953 C1.92118718 3.90710872 0.96624275 2.14635972 0 0 Z " transform="translate(435,413)" style="fill: #65CB6B;"/><path d="M0 0 C3.36179774 1.44077046 5.59156268 3.24750021 8 6 C8 6.66 8 7.32 8 8 C9.32 8.33 10.64 8.66 12 9 C12 9.66 12 10.32 12 11 C12.66 11 13.32 11 14 11 C14 11.99 14 12.98 14 14 C14.99 14 15.98 14 17 14 C18.68933922 15.6436814 20.35259924 17.3142876 22 19 C26.08591999 22.20792365 26.08591999 22.20792365 31 23 C31.268125 23.598125 31.53625 24.19625 31.8125 24.8125 C32.98493467 26.97224808 34.19369282 28.35790256 36 30 C26.35238431 26.35001396 19.02235099 20.39363933 11.5625 13.4375 C10.87631592 12.80046143 10.19013184 12.16342285 9.4831543 11.50708008 C5.72358473 7.92466057 2.68162096 4.45107929 0 0 Z " transform="translate(441,328)" style="fill: #69BB6C;"/><path d="M0 0 C0.33 0 0.66 0 1 0 C1.33 16.17 1.66 32.34 2 49 C4.97 48.01 7.94 47.02 11 46 C11.33 44.68 11.66 43.36 12 42 C13.65 42.33 15.3 42.66 17 43 C13.40855414 47.5709311 8.39791428 49.30582991 3 51 C2.01 51 1.02 51 0 51 C0 34.17 0 17.34 0 0 Z " transform="translate(523,313)" style="fill: #6AC56C;"/><path d="M0 0 C0 3.34419152 -0.47519394 4.06840321 -2.375 6.6875 C-2.81585937 7.31011719 -3.25671875 7.93273437 -3.7109375 8.57421875 C-4.13632812 9.04472656 -4.56171875 9.51523437 -5 10 C-5.66 10 -6.32 10 -7 10 C-7.04125 10.556875 -7.0825 11.11375 -7.125 11.6875 C-8.4508957 15.19165291 -11.09104168 16.74407314 -14 19 C-14.66 19.66 -15.32 20.32 -16 21 C-17.32 21 -18.64 21 -20 21 C-20.33 22.32 -20.66 23.64 -21 25 C-22.98 25.33 -24.96 25.66 -27 26 C-23.26138909 22.14169722 -19.3125081 18.68657391 -15.1875 15.25 C-9.62117451 10.55811169 -4.60433197 5.66247037 0 0 Z " transform="translate(572,329)" style="fill: #0C3421;"/><path d="M0 0 C3.88433735 3.50843373 3.88433735 3.50843373 4.5 6.125 C4.665 6.74375 4.83 7.3625 5 8 C6.32627982 8.68059096 7.66105717 9.34467235 9 10 C10.35313287 11.0584991 11.68513803 12.14432062 13 13.25 C18.22916065 17.41412292 23.95447547 20.2073973 30 23 C30 23.66 30 24.32 30 25 C21.66985145 23.73466098 14.04372977 18.72563873 8 13 C7.67 12.34 7.34 11.68 7 11 C6.360625 10.731875 5.72125 10.46375 5.0625 10.1875 C1.71698578 8.26129485 1.3381448 5.25113575 0.375 1.6875 C0.25125 1.130625 0.1275 0.57375 0 0 Z " transform="translate(362,444)" style="fill: #4AAF58;"/><path d="M0 0 C1.98 0.99 1.98 0.99 4 2 C3.88485851 4.04224637 3.75742674 6.08380159 3.625 8.125 C3.52058594 9.83042969 3.52058594 9.83042969 3.4140625 11.5703125 C3.00556124 14.95393616 2.19032431 17.81612441 1 21 C1.66 21 2.32 21 3 21 C3 21.99 3 22.98 3 24 C3.99 24.33 4.98 24.66 6 25 C4.02 25 2.04 25 0 25 C0 16.75 0 8.5 0 0 Z " transform="translate(393,688)" style="fill: #A44D32;"/><path d="M0 0 C0.33 0 0.66 0 1 0 C1 2.97 1 5.94 1 9 C-1.47030271 8.02936779 -3.91300388 7.04006208 -6.32421875 5.9296875 C-12.40443654 3.21620188 -17.37330303 2.49242321 -24 3 C-25.14814997 5.29629994 -25.30769809 7.07698086 -25.5625 9.625 C-25.64628906 10.44226563 -25.73007812 11.25953125 -25.81640625 12.1015625 C-25.87699219 12.72804687 -25.93757813 13.35453125 -26 14 C-26.33 14 -26.66 14 -27 14 C-27.05416188 12.39620659 -27.09286638 10.79188594 -27.125 9.1875 C-27.14820313 8.29417969 -27.17140625 7.40085938 -27.1953125 6.48046875 C-27 4 -27 4 -25 1 C-21.76953125 0.63671875 -21.76953125 0.63671875 -17.8125 0.6875 C-15.87310547 0.69330078 -15.87310547 0.69330078 -13.89453125 0.69921875 C-9.86524578 1.0104073 -6.78511523 1.63889757 -3 3 C-2.67 3.66 -2.34 4.32 -2 5 C-1.34 3.35 -0.68 1.7 0 0 Z " transform="translate(491,216)" style="fill: #68C06E;"/><path d="M0 0 C3.24126997 1.08042332 3.70413219 1.57077143 5.62890625 4.203125 C6.10650391 4.85410156 6.58410156 5.50507813 7.07617188 6.17578125 C7.56666016 6.86027344 8.05714844 7.54476563 8.5625 8.25 C9.05685547 8.91902344 9.55121094 9.58804687 10.06054688 10.27734375 C12.56726873 13.73044639 14.65794014 16.90234976 16 21 C12.60582235 17.87378374 10.3937282 15.43458973 9 11 C8.34 11 7.68 11 7 11 C6.95101562 11.71027344 6.90203125 12.42054688 6.8515625 13.15234375 C6.77679687 14.07144531 6.70203125 14.99054688 6.625 15.9375 C6.55539062 16.85402344 6.48578125 17.77054687 6.4140625 18.71484375 C6.27742187 19.46894531 6.14078125 20.22304688 6 21 C5.34 21.33 4.68 21.66 4 22 C4.061875 20.72125 4.12375 19.4425 4.1875 18.125 C4.20462647 12.71303412 2.76656714 8.07087148 1 3 C0.67 2.01 0.34 1.02 0 0 Z " transform="translate(657,275)" style="fill: #2D8453;"/><path d="M0 0 C0 4.04016033 -1.73255996 5.69601595 -4 9 C-5.03161608 10.98387708 -6.03523618 12.98276656 -7 15 C-8 17 -9 19 -10 21 C-11.9375 20.1875 -11.9375 20.1875 -14 19 C-14.33 18.01 -14.66 17.02 -15 16 C-14.01 15.67 -13.02 15.34 -12 15 C-11.32360127 13.67157726 -10.65938081 12.33695144 -10 11 C-8.32412657 9.03290921 -6.63927106 7.13287751 -4.875 5.25 C-4.40707031 4.74339844 -3.93914063 4.23679687 -3.45703125 3.71484375 C-2.30873459 2.47280859 -1.15491328 1.23588506 0 0 Z " transform="translate(581,411)" style="fill: #123428;"/><path d="M0 0 C0.66 0.33 1.32 0.66 2 1 C2 1.99 2 2.98 2 4 C3.65 4.33 5.3 4.66 7 5 C5.74869504 7.50260992 4.82641684 7.68722294 2.3125 8.8125 C-2.85755182 11.30006533 -6.77066643 14.15599964 -10 19 C-10.66 18.67 -11.32 18.34 -12 18 C-10.625 15.5 -10.625 15.5 -9 13 C-8.34 13 -7.68 13 -7 13 C-6.67 11.68 -6.34 10.36 -6 9 C-4.02 8.67 -2.04 8.34 0 8 C-0.185625 7.05125 -0.37125 6.1025 -0.5625 5.125 C-1 2 -1 2 0 0 Z " transform="translate(402,428)" style="fill: #68C66B;"/><path d="M0 0 C0 2 0 2 -2 4 C-2.680625 4.165 -3.36125 4.33 -4.0625 4.5 C-4.701875 4.665 -5.34125 4.83 -6 5 C-6.33 5.66 -6.66 6.32 -7 7 C-7.99 7 -8.98 7 -10 7 C-10.33 8.65 -10.66 10.3 -11 12 C-12.65 12.33 -14.3 12.66 -16 13 C-15.67 14.32 -15.34 15.64 -15 17 C-14.34 17 -13.68 17 -13 17 C-13.33 17.66 -13.66 18.32 -14 19 C-15.32 18.01 -16.64 17.02 -18 16 C-15.55147963 8.85848225 -8.33554629 0 0 0 Z " transform="translate(386,325)" style="fill: #103924;"/><path d="M0 0 C0.88935377 3.303314 1.46274105 6.62294375 2 10 C3.98 10.66 5.96 11.32 8 12 C7.34 12.66 6.68 13.32 6 14 C2 12 -2 10 -6 8 C-4.55746343 4.63408134 -2.66735273 2.48952921 0 0 Z " transform="translate(606,425)" style="fill: #60BA62;"/><path d="M0 0 C0.226875 0.5775 0.45375 1.155 0.6875 1.75 C4.24125629 7.84215365 10.23882622 9.33110841 16.6171875 11.18359375 C21.06652864 12.25739548 25.43327255 12.7938272 30 13 C30 13.33 30 13.66 30 14 C23.35554131 15.07168689 17.45767099 15.19099551 11 13 C10.67 12.34 10.34 11.68 10 11 C8.68 11 7.36 11 6 11 C3.875 9.0625 3.875 9.0625 2 7 C1.34 6.67 0.68 6.34 0 6 C0 4.02 0 2.04 0 0 Z " transform="translate(390,448)" style="fill: #69C06E;"/><path d="M0 0 C2.31 0 4.62 0 7 0 C10.35604144 6.71208287 7.09121256 15.34048382 5 22 C4.67 22 4.34 22 4 22 C4.33 17.38 4.66 12.76 5 8 C4.34 7.67 3.68 7.34 3 7 C3 6.34 3 5.68 3 5 C3.66 5 4.32 5 5 5 C5 3.68 5 2.36 5 1 C3.35 1 1.7 1 0 1 C0 0.67 0 0.34 0 0 Z " transform="translate(614,288)" style="fill: #0D3222;"/><path d="M0 0 C-1.26816386 2.53632772 -2.06283263 2.66440085 -4.6875 3.625 C-12.40687172 6.06595703 -21.5914295 6.49539698 -29 3 C-29 2.67 -29 2.34 -29 2 C-28.41508789 2.01047363 -27.83017578 2.02094727 -27.22753906 2.03173828 C-24.56840337 2.07340264 -21.90933647 2.09935901 -19.25 2.125 C-18.32960938 2.14175781 -17.40921875 2.15851563 -16.4609375 2.17578125 C-15.57148437 2.18222656 -14.68203125 2.18867188 -13.765625 2.1953125 C-12.54020996 2.21102295 -12.54020996 2.21102295 -11.29003906 2.22705078 C-7.0800991 1.80964735 -4.47309176 -0.2485051 0 0 Z " transform="translate(634,346)" style="fill: #133F25;"/><path d="M0 0 C0 3 0 3 -1.375 4.5625 C-1.91125 5.036875 -2.4475 5.51125 -3 6 C-3.66 6.66 -4.32 7.32 -5 8 C-5.66 8 -6.32 8 -7 8 C-7.66 9.32 -8.32 10.64 -9 12 C-9.99 12 -10.98 12 -12 12 C-12.061875 12.78375 -12.12375 13.5675 -12.1875 14.375 C-12.5896875 15.674375 -12.5896875 15.674375 -13 17 C-15.5625 18.3125 -15.5625 18.3125 -18 19 C-17.34 17.35 -16.68 15.7 -16 14 C-15.34 14 -14.68 14 -14 14 C-13.773125 13.43667969 -13.54625 12.87335938 -13.3125 12.29296875 C-11.63327459 9.35932197 -9.53445318 7.54119793 -7 5.3125 C-6.113125 4.52488281 -5.22625 3.73726562 -4.3125 2.92578125 C-2 1 -2 1 0 0 Z " transform="translate(468,176)" style="fill: #7DCF7D;"/><path d="M0 0 C3.36947542 3.03913469 5.30422175 6.06857693 7.3125 10.125 C7.84488281 11.17945313 8.37726562 12.23390625 8.92578125 13.3203125 C9.45751953 14.64675781 9.45751953 14.64675781 10 16 C9.67 16.66 9.34 17.32 9 18 C8.20335937 16.98679688 8.20335937 16.98679688 7.390625 15.953125 C6.68421875 15.06109375 5.9778125 14.1690625 5.25 13.25 C4.55390625 12.36828125 3.8578125 11.4865625 3.140625 10.578125 C1.20054103 8.24152752 -0.81512186 6.1061438 -3 4 C-2.01 4 -1.02 4 0 4 C0 2.68 0 1.36 0 0 Z " transform="translate(556,177)" style="fill: #D3F3DE;"/><path d="M0 0 C0 0.33 0 0.66 0 1 C-1.39412109 1.05607422 -1.39412109 1.05607422 -2.81640625 1.11328125 C-13.69713967 1.649394 -13.69713967 1.649394 -23.125 6.625 C-25.37877153 8.27776579 -27.25922274 8.61933649 -30 9 C-21.19348597 -0.90732829 -12.38579613 -0.50669166 0 0 Z " transform="translate(606,244)" style="fill: #DAE9E2;"/><path d="M0 0 C3.12160944 4.68241415 3.12388181 8.86093823 3.09765625 14.39453125 C3.09443359 15.59658203 3.09121094 16.79863281 3.08789062 18.03710938 C3.07951172 19.28298828 3.07113281 20.52886719 3.0625 21.8125 C3.05798828 23.07771484 3.05347656 24.34292969 3.04882812 25.64648438 C3.03706251 28.7643711 3.02062272 31.88216133 3 35 C2.67 35 2.34 35 2 35 C1.66251947 30.4794663 1.33075261 25.95853055 1 21.4375 C0.90460938 20.16068359 0.80921875 18.88386719 0.7109375 17.56835938 C0.62070312 16.32763672 0.53046875 15.08691406 0.4375 13.80859375 C0.35371094 12.67220459 0.26992188 11.53581543 0.18359375 10.36499023 C-0.00528625 6.90311118 -0.0308288 3.46631282 0 0 Z " transform="translate(448,765)" style="fill: #C9896C;"/><path d="M0 0 C2 2 2 2 2.15234375 4.6171875 C1.61671403 12.73928179 0.0780683 19.86927363 -4 27 C-5.485 27.99 -5.485 27.99 -7 29 C-6.56880859 27.70835937 -6.56880859 27.70835937 -6.12890625 26.390625 C-5.75636719 25.27171875 -5.38382813 24.1528125 -5 23 C-4.65839844 21.98421875 -4.31679688 20.9684375 -3.96484375 19.921875 C-1.80436123 13.25148789 -0.31664883 7.01377158 0 0 Z " transform="translate(622,289)" style="fill: #63B868;"/><path d="M0 0 C3.625 -0.1875 3.625 -0.1875 7 0 C7 0.33 7 0.66 7 1 C5.02 1.66 3.04 2.32 1 3 C0.90247539 8.46137814 1.22750855 13.59255982 2 19 C2.66 19 3.32 19 4 19 C3.67 20.32 3.34 21.64 3 23 C2.35165346 21.730447 1.70642185 20.45930294 1.0625 19.1875 C0.70285156 18.47980469 0.34320313 17.77210938 -0.02734375 17.04296875 C-1.58985813 13.76106104 -2.15752919 11.0964972 -2.1875 7.5 C-2.20167969 6.7265625 -2.21585937 5.953125 -2.23046875 5.15625 C-2 3 -2 3 0 0 Z " transform="translate(467,218)" style="fill: #123E22;"/><path d="M0 0 C3 1 3 1 4.3515625 3.328125 C4.77179687 4.29234375 5.19203125 5.2565625 5.625 6.25 C6.05039062 7.20390625 6.47578125 8.1578125 6.9140625 9.140625 C8 12 8 12 8.5234375 14.734375 C8.82418472 17.18846028 8.82418472 17.18846028 11 19 C9.35 19.66 7.7 20.32 6 21 C5.81824219 20.04738281 5.63648438 19.09476563 5.44921875 18.11328125 C5.07216797 16.23189453 5.07216797 16.23189453 4.6875 14.3125 C4.44386719 13.07113281 4.20023438 11.82976562 3.94921875 10.55078125 C3.04831339 7.18072788 1.86871943 4.90515205 0 2 C0 1.34 0 0.68 0 0 Z " transform="translate(516,204)" style="fill: #61B868;"/><path d="M0 0 C-3.12180401 0.96661363 -5.52083795 0.98988909 -8.75 0.5625 C-9.94882812 0.40974609 -9.94882812 0.40974609 -11.171875 0.25390625 C-12.07679688 0.12822266 -12.07679688 0.12822266 -13 0 C-13 -0.66 -13 -1.32 -13 -2 C-15.77117304 -1.85919445 -18.54182641 -1.71256882 -21.3125 -1.5625 C-22.09818359 -1.52318359 -22.88386719 -1.48386719 -23.69335938 -1.44335938 C-24.45068359 -1.40146484 -25.20800781 -1.35957031 -25.98828125 -1.31640625 C-26.68477783 -1.27974854 -27.38127441 -1.24309082 -28.09887695 -1.20532227 C-30.2216572 -1.04418847 -30.2216572 -1.04418847 -33 0 C-35.1875 -0.9375 -35.1875 -0.9375 -37 -2 C-25.57840117 -5.24565935 -11.09426908 -3.8588762 0 0 Z " transform="translate(529,167)" style="fill: #75C477;"/><path d="M0 0 C1.17487036 0.75827092 2.33972592 1.53207755 3.5 2.3125 C4.47453125 2.95638672 4.47453125 2.95638672 5.46875 3.61328125 C5.9740625 4.07089844 6.479375 4.52851563 7 5 C7 5.99 7 6.98 7 8 C7.99 8 8.98 8 10 8 C10.99 9.485 10.99 9.485 12 11 C13.84971696 12.05021103 13.84971696 12.05021103 16 13 C17.67334039 13.98879205 19.34151823 14.98648336 21 16 C20.34 16.33 19.68 16.66 19 17 C11.87983061 14.12694919 4.03490061 9.45529481 0.7421875 2.24609375 C0.49726563 1.50488281 0.25234375 0.76367188 0 0 Z " transform="translate(472,242)" style="fill: #0A3622;"/><path d="M0 0 C0.79921875 0.01804687 1.5984375 0.03609375 2.421875 0.0546875 C3.02515625 0.07789063 3.6284375 0.10109375 4.25 0.125 C3.92 1.115 3.59 2.105 3.25 3.125 C2.61191406 3.11339844 1.97382813 3.10179687 1.31640625 3.08984375 C0.49011719 3.08082031 -0.33617187 3.07179688 -1.1875 3.0625 C-2.01121094 3.05089844 -2.83492188 3.03929687 -3.68359375 3.02734375 C-5.74163938 2.89232652 -5.74163938 2.89232652 -6.75 4.125 C-6.82244053 6.14464199 -6.83377188 8.16667124 -6.8125 10.1875 C-6.79896484 11.84458984 -6.79896484 11.84458984 -6.78515625 13.53515625 C-6.77355469 14.38980469 -6.76195312 15.24445313 -6.75 16.125 C-8.25390625 14.97265625 -8.25390625 14.97265625 -9.75 13.125 C-9.96484375 10.49609375 -9.96484375 10.49609375 -9.6875 7.5625 C-9.61402344 6.59183594 -9.54054688 5.62117188 -9.46484375 4.62109375 C-8.75 2.125 -8.75 2.125 -6.98828125 0.79296875 C-4.53270436 0.06015261 -2.55747769 -0.07521993 0 0 Z " transform="translate(399.75,381.875)" style="fill: #64C169;"/><path d="M0 0 C0 3.2468002 -0.28927827 4.30738473 -2 7 C-4.3828125 9.140625 -4.3828125 9.140625 -7.125 11.25 C-8.03507812 11.95640625 -8.94515625 12.6628125 -9.8828125 13.390625 C-10.58148438 13.92171875 -11.28015625 14.4528125 -12 15 C-12.66 14.67 -13.32 14.34 -14 14 C-12.42100123 12.22513306 -10.83707231 10.45512408 -9.25 8.6875 C-8.8065625 8.18798828 -8.363125 7.68847656 -7.90625 7.17382812 C-5.453615 4.45068191 -3.02719984 2.07235877 0 0 Z " transform="translate(457,170)" style="fill: #DCEEEF;"/><path d="M0 0 C0.99 0 1.98 0 3 0 C0.13691369 6.44194419 -4.65410689 10.63018288 -10 15 C-10.66 14.67 -11.32 14.34 -12 14 C-10.68 11.69 -9.36 9.38 -8 7 C-6.68 7.33 -5.36 7.66 -4 8 C-4 6.35 -4 4.7 -4 3 C-2.68 2.67 -1.36 2.34 0 2 C0 1.34 0 0.68 0 0 Z " transform="translate(572,417)" style="fill: #6BCB71;"/><path d="M0 0 C0 9 0 9 -2 11 C-2.04063832 12.66617115 -2.042721 14.33388095 -2 16 C-6.73472669 10.50160772 -6.73472669 10.50160772 -7 7 C-5.56640625 5.078125 -5.56640625 5.078125 -3.5625 3.25 C-2.57443359 2.32960938 -2.57443359 2.32960938 -1.56640625 1.390625 C-1.04949219 0.93171875 -0.53257812 0.4728125 0 0 Z " transform="translate(653,380)" style="fill: #1F8C44;"/><path d="M0 0 C0.66 0.33 1.32 0.66 2 1 C1.67 1.66 1.34 2.32 1 3 C0.34 3 -0.32 3 -1 3 C-1.433125 3.928125 -1.433125 3.928125 -1.875 4.875 C-3 7 -3 7 -5 9 C-7.125 8.625 -7.125 8.625 -9 8 C-8.67 8.99 -8.34 9.98 -8 11 C-8.66 11 -9.32 11 -10 11 C-10 10.34 -10 9.68 -10 9 C-10.99 9.495 -10.99 9.495 -12 10 C-13.99960012 10.039992 -16.00047242 10.04346799 -18 10 C-15.53651202 8.35767468 -13.90542501 7.5363358 -11.1875 6.625 C-7.02185814 5.11860553 -3.17477916 3.17477916 0 0 Z " transform="translate(644,340)" style="fill: #5FB264;"/><path d="M0 0 C3.93449672 0.5828884 6.20683331 2.20683331 9 5 C10.26857209 7.63279048 11.1133336 10.20000083 12 13 C11.01 13 10.02 13 9 13 C6.9921875 10.6640625 6.9921875 10.6640625 4.875 7.625 C4.17117188 6.62726563 3.46734375 5.62953125 2.7421875 4.6015625 C1 2 1 2 0 0 Z " transform="translate(551,170)" style="fill: #37845A;"/><path d="M0 0 C0.33 0 0.66 0 1 0 C1.09796875 0.90621094 1.1959375 1.81242187 1.296875 2.74609375 C2.20430562 10.13852419 3.42118611 16.43305024 7 23 C4.5625 22.3125 4.5625 22.3125 2 21 C1.1875 18.375 1.1875 18.375 1 16 C0.34 16 -0.32 16 -1 16 C-0.67 10.72 -0.34 5.44 0 0 Z " transform="translate(346,416)" style="fill: #3D7058;"/><path d="M0 0 C1.32 0.66 2.64 1.32 4 2 C4 2.66 4 3.32 4 4 C-1.73310689 6.39748106 -6.80481527 7.58411954 -13 8 C-9.82490175 5.3540848 -6.40972747 3.6395356 -2.70703125 1.8671875 C-1.0155053 1.11889274 -1.0155053 1.11889274 0 0 Z " transform="translate(435,453)" style="fill: #62B86B;"/><path d="M0 0 C0.66 0.33 1.32 0.66 2 1 C2 3.64 2 6.28 2 9 C7.445 10.485 7.445 10.485 13 12 C9 14 9 14 6.96484375 13.42578125 C6.29582031 13.05839844 5.62679688 12.69101562 4.9375 12.3125 C4.26589844 11.95800781 3.59429687 11.60351562 2.90234375 11.23828125 C0.94899051 9.9667967 -0.54396754 8.82348545 -2 7 C-1.56521739 1.56521739 -1.56521739 1.56521739 0 0 Z " transform="translate(393,445)" style="fill: #0C3820;"/><path d="M0 0 C0 3 0 3 -1.96875 5.04296875 C-2.8040625 5.75066406 -3.639375 6.45835937 -4.5 7.1875 C-5.3353125 7.90292969 -6.170625 8.61835938 -7.03125 9.35546875 C-7.6809375 9.89816406 -8.330625 10.44085938 -9 11 C-9.99 10.67 -10.98 10.34 -12 10 C-11.67 8.35 -11.34 6.7 -11 5 C-10.34 5 -9.68 5 -9 5 C-8.67 4.67 -8.34 4.34 -8 4 C-5.9375 4.4375 -5.9375 4.4375 -4 5 C-4 4.01 -4 3.02 -4 2 C-2.68 1.34 -1.36 0.68 0 0 Z " transform="translate(573,364)" style="fill: #113726;"/><path d="M0 0 C2.3125 0.1875 2.3125 0.1875 4 1 C3.319375 1.53625 2.63875 2.0725 1.9375 2.625 C-1.43384168 5.35076561 -4.72065543 8.16483178 -8 11 C-7.67 8.36 -7.34 5.72 -7 3 C-6.34 3.66 -5.68 4.32 -5 5 C-4.2575 4.154375 -3.515 3.30875 -2.75 2.4375 C-1.8425 1.633125 -0.935 0.82875 0 0 Z " transform="translate(579,246)" style="fill: #399452;"/><path d="M0 0 C3.12830756 1.45131349 6.25203426 2.91223157 9.375 4.375 C10.70917969 4.99375 10.70917969 4.99375 12.0703125 5.625 C12.92109375 6.02460938 13.771875 6.42421875 14.6484375 6.8359375 C15.43395996 7.20251465 16.21948242 7.5690918 17.02880859 7.94677734 C19 9 19 9 21 11 C18.69 11 16.38 11 14 11 C14 10.34 14 9.68 14 9 C13.34 9 12.68 9 12 9 C12 8.34 12 7.68 12 7 C11.13375 6.9175 10.2675 6.835 9.375 6.75 C5.48892222 5.88642716 3.11499979 4.44749984 0 2 C0 1.34 0 0.68 0 0 Z " transform="translate(466,385)" style="fill: #67B96C;"/><path d="M0 0 C3.63 1.98 7.26 3.96 11 6 C11 6.66 11 7.32 11 8 C7.08406554 7.21681311 3.63593365 5.60820142 0 4 C0 4.66 0 5.32 0 6 C-1.32 6.33 -2.64 6.66 -4 7 C-2.92598892 4.08482708 -2.22189824 2.22189824 0 0 Z " transform="translate(594,343)" style="fill: #66B96A;"/><path d="M0 0 C2.75903437 1.37951718 2.83859851 2.82240663 3.875 5.6875 C5.49357494 9.92865313 7.31398775 13.35469766 10 17 C9.67 17.66 9.34 18.32 9 19 C6 15.25 6 15.25 6 13 C5.34 13 4.68 13 4 13 C4 12.01 4 11.02 4 10 C3.01 10 2.02 10 1 10 C0.67 6.7 0.34 3.4 0 0 Z " transform="translate(393,401)" style="fill: #65BA6B;"/><path d="M0 0 C-2.60060504 1.34070318 -5.20504916 2.67273354 -7.8125 4 C-8.55048828 4.3815625 -9.28847656 4.763125 -10.04882812 5.15625 C-10.76103516 5.5171875 -11.47324219 5.878125 -12.20703125 6.25 C-13.18893433 6.75273437 -13.18893433 6.75273437 -14.19067383 7.265625 C-16 8 -16 8 -19 8 C-19 7.34 -19 6.68 -19 6 C-15.62902617 4.50178941 -13.79557881 4 -10 4 C-9.67 3.01 -9.34 2.02 -9 1 C-8.01 1.33 -7.02 1.66 -6 2 C-6 1.34 -6 0.68 -6 0 C-2.25 -1.125 -2.25 -1.125 0 0 Z " transform="translate(547,385)" style="fill: #0B3424;"/><path d="M0 0 C4.13371903 3.67441691 7.3543783 7.62501483 9 13 C8.6015625 15.24609375 8.6015625 15.24609375 8 17 C8 16.34 8 15.68 8 15 C7.34 15 6.68 15 6 15 C5.34 12.36 4.68 9.72 4 7 C2.68 7 1.36 7 0 7 C0.2784375 6.1028125 0.2784375 6.1028125 0.5625 5.1875 C1.22093687 2.83591238 1.22093687 2.83591238 0 0 Z " transform="translate(512,201)" style="fill: #0E3A26;"/><path d="M0 0 C6.88967824 2.40009283 12.40124314 5.30830431 18 10 C16.68 10.33 15.36 10.66 14 11 C14 10.34 14 9.68 14 9 C13.34 9 12.68 9 12 9 C11.54625 8.525625 11.0925 8.05125 10.625 7.5625 C8.77022513 5.77906263 7.49864408 5.4308007 5 5 C5 4.34 5 3.68 5 3 C3.35 2.67 1.7 2.34 0 2 C0 1.34 0 0.68 0 0 Z " transform="translate(600,433)" style="fill: #0C3622;"/><path d="M0 0 C1.00083237 3.11370072 1.12653646 4.9236889 0 8 C-1.45393499 9.96789689 -2.98304361 11.88134737 -4.5625 13.75 C-5.80193359 15.22726562 -5.80193359 15.22726562 -7.06640625 16.734375 C-7.70449219 17.48203125 -8.34257813 18.2296875 -9 19 C-9 15.41368196 -8.08144507 14.18739839 -6.1875 11.1875 C-3.91850955 7.52385821 -1.84371814 3.89229386 0 0 Z " transform="translate(675,371)" style="fill: #0A362A;"/><path d="M0 0 C0.66 0.33 1.32 0.66 2 1 C-11.87285223 12 -11.87285223 12 -18 12 C-18 11.34 -18 10.68 -18 10 C-16.88625 9.649375 -15.7725 9.29875 -14.625 8.9375 C-9.13205382 6.90963815 -4.65652108 3.48284876 0 0 Z " transform="translate(458,475)" style="fill: #2E815B;"/><path d="M0 0 C0.33 0.66 0.66 1.32 1 2 C0.34 2 -0.32 2 -1 2 C-1.33 2.66 -1.66 3.32 -2 4 C-3.72920494 5.12898504 -5.50883249 6.18174633 -7.3125 7.1875 C-8.27800781 7.73792969 -9.24351562 8.28835938 -10.23828125 8.85546875 C-13 10 -13 10 -17 9 C-11.39 6.03 -5.78 3.06 0 0 Z " transform="translate(552,382)" style="fill: #66B96A;"/><path d="M0 0 C2.18697502 2.79624958 3.99152813 5.63307872 5.6875 8.75 C6.34298828 9.94882812 6.34298828 9.94882812 7.01171875 11.171875 C7.33785156 11.77515625 7.66398437 12.3784375 8 13 C4.78956118 11.61811547 2.95063635 10.07578097 0.75 7.375 C0.22921875 6.74335938 -0.2915625 6.11171875 -0.828125 5.4609375 C-1.21484375 4.97882813 -1.6015625 4.49671875 -2 4 C-1.34 4 -0.68 4 0 4 C0 2.68 0 1.36 0 0 Z " transform="translate(447,420)" style="fill: #63C174;"/><path d="M0 0 C1.98 0 3.96 0 6 0 C4.03617993 1.50559539 2.21736634 2.89131683 0 4 C1.20381448 6.49361571 2.45428722 8.68143083 4 11 C2.35 10.67 0.7 10.34 -1 10 C-1.66 7.69 -2.32 5.38 -3 3 C-2.01 2.67 -1.02 2.34 0 2 C0 1.34 0 0.68 0 0 Z " transform="translate(552,467)" style="fill: #103C32;"/><path d="M0 0 C0.66 0.33 1.32 0.66 2 1 C2 1.66 2 2.32 2 3 C1.01 3 0.02 3 -1 3 C-1.66 4.65 -2.32 6.3 -3 8 C-3.66 8 -4.32 8 -5 8 C-5.2475 8.61875 -5.495 9.2375 -5.75 9.875 C-7.20628639 12.35068687 -8.37812506 12.95125002 -11 14 C-9.42219077 10.28954753 -7.09296752 7.70093616 -4.375 4.75 C-3.55773437 3.85796875 -2.74046875 2.9659375 -1.8984375 2.046875 C-1.27195312 1.37140625 -0.64546875 0.6959375 0 0 Z " transform="translate(652,464)" style="fill: #093127;"/><path d="M0 0 C2 3 2 3 1.8125 5 C0.885644 7.2814917 -0.08360049 8.4668804 -2 10 C-2.66 10 -3.32 10 -4 10 C-3.85950482 8.52031676 -3.71245174 7.04125484 -3.5625 5.5625 C-3.48128906 4.73878906 -3.40007813 3.91507812 -3.31640625 3.06640625 C-2.9001499 0.34789259 -2.77639501 0 0 0 Z " transform="translate(620,445)" style="fill: #0E3327;"/><path d="M0 0 C4.41355564 0.28474553 6.94532123 1.32525938 10.875 3.25 C8.9375 3.8125 8.9375 3.8125 6.875 4.25 C6.545 3.92 6.215 3.59 5.875 3.25 C4.35571962 3.17820036 2.83332518 3.16607993 1.3125 3.1875 C0.07306641 3.20103516 0.07306641 3.20103516 -1.19140625 3.21484375 C-2.14853516 3.23224609 -2.14853516 3.23224609 -3.125 3.25 C-2.795 4.57 -2.465 5.89 -2.125 7.25 C-3.115 7.745 -3.115 7.745 -4.125 8.25 C-4.16741723 5.91705225 -4.16592937 3.58297433 -4.125 1.25 C-3.125 0.25 -3.125 0.25 0 0 Z " transform="translate(397.125,383.75)" style="fill: #0B301F;"/><path d="M0 0 C3.67822053 1.61249004 6.53024166 3.89746249 9.625 6.4375 C11.06746094 7.61119141 11.06746094 7.61119141 12.5390625 8.80859375 C15 11 15 11 17 14 C13.5881759 12.46428335 10.85527045 10.45745601 7.9375 8.125 C7.08027344 7.44695312 6.22304688 6.76890625 5.33984375 6.0703125 C3.20064597 4.17753316 1.6062926 2.34887376 0 0 Z " transform="translate(436,362)" style="fill: #0F3721;"/><path d="M0 0 C0.33 0.66 0.66 1.32 1 2 C0.00390625 4.1640625 0.00390625 4.1640625 -1.4375 6.625 C-1.91058594 7.44226563 -2.38367188 8.25953125 -2.87109375 9.1015625 C-3.24363281 9.72804688 -3.61617187 10.35453125 -4 11 C-4.66 11 -5.32 11 -6 11 C-6.33 12.65 -6.66 14.3 -7 16 C-8.32 16.33 -9.64 16.66 -11 17 C-9.24933204 13.11390189 -6.81675994 9.72187742 -4.375 6.25 C-3.95476563 5.64800781 -3.53453125 5.04601562 -3.1015625 4.42578125 C-2.07006863 2.94886957 -1.03535421 1.47420806 0 0 Z " transform="translate(588,307)" style="fill: #08301C;"/><path d="M0 0 C0 0.99 0 1.98 0 3 C-0.99 3.33 -1.98 3.66 -3 4 C-3.33 4.99 -3.66 5.98 -4 7 C-4.66 7 -5.32 7 -6 7 C-6.33 7.99 -6.66 8.98 -7 10 C-7.99 10.495 -7.99 10.495 -9 11 C-9.33 11.99 -9.66 12.98 -10 14 C-10.66 14 -11.32 14 -12 14 C-10.63350805 9.99304703 -8.82896473 7.3232826 -6 4.1875 C-4.948125 3.00220703 -4.948125 3.00220703 -3.875 1.79296875 C-2 0 -2 0 0 0 Z " transform="translate(368,276)" style="fill: #8ED189;"/><path d="M0 0 C-1.20842856 4.43090471 -2.51668565 6.98112756 -6 10 C-6.625 7.6875 -6.625 7.6875 -7 5 C-3.66666667 0 -3.66666667 0 0 0 Z " transform="translate(616,408)" style="fill: #0F3126;"/><path d="M0 0 C0 0.66 0 1.32 0 2 C-0.969375 2.28875 -1.93875 2.5775 -2.9375 2.875 C-6.10664203 3.64214682 -6.10664203 3.64214682 -7 6 C-9.31 5.67 -11.62 5.34 -14 5 C-9.67612562 1.34133706 -5.65076098 0 0 0 Z " transform="translate(402,258)" style="fill: #78C379;"/><path d="M0 0 C1.41548469 4.24645407 -0.06459189 6.53472327 -1.7421875 10.546875 C-3.40065458 13.78140085 -5.22376537 15.68647114 -8 18 C-8.33 17.01 -8.66 16.02 -9 15 C-8.34 15 -7.68 15 -7 15 C-6.67 14.01 -6.34 13.02 -6 12 C-5.0006062 10.25912048 -4.00041262 8.51866124 -2.98828125 6.78515625 C-1.77670222 4.59665183 -0.85413397 2.3488684 0 0 Z " transform="translate(546,230)" style="fill: #0D3825;"/><path d="M0 0 C2 0 2 0 3.5625 1.125 C5.49026016 3.63946978 5.65505107 5.89545967 6 9 C6.66 9 7.32 9 8 9 C8.33 11.97 8.66 14.94 9 18 C6.73001143 14.59501715 5.07747873 11.01850554 3.375 7.3125 C3.05015625 6.61060547 2.7253125 5.90871094 2.390625 5.18554688 C1.59151664 3.45806262 0.79545957 1.72916746 0 0 Z " transform="translate(670,290)" style="fill: #08332B;"/><path d="M0 0 C-3.81756824 1.37432457 -7.07255329 0.67975039 -11 0 C-11.66 4.29 -12.32 8.58 -13 13 C-13.33 13 -13.66 13 -14 13 C-14.05410687 11.22950311 -14.09284119 9.45853151 -14.125 7.6875 C-14.14820313 6.70136719 -14.17140625 5.71523438 -14.1953125 4.69921875 C-14 2 -14 2 -12 -1 C-3.83016105 -2.71303075 -3.83016105 -2.71303075 0 0 Z " transform="translate(404,287)" style="fill: #6AC271;"/><path d="M0 0 C1.33176248 3.99528745 0.41870859 6.09855137 -1 10 C-4 12 -4 12 -6 12 C-4.68139111 7.38486888 -2.78644563 3.90102388 0 0 Z " transform="translate(449,196)" style="fill: #76CC73;"/><path d="M0 0 C4.37243229 -0.37815631 6.65147145 0.65694173 10.3125 3 C11.19550781 3.556875 12.07851563 4.11375 12.98828125 4.6875 C13.65214844 5.120625 14.31601562 5.55375 15 6 C13.68 7.32 12.36 8.64 11 10 C10.67 9.34 10.34 8.68 10 8 C10.66 8 11.32 8 12 8 C12 7.34 12 6.68 12 6 C11.319375 5.731875 10.63875 5.46375 9.9375 5.1875 C6.60289191 3.83946694 3.30256763 2.42463702 0 1 C0 0.67 0 0.34 0 0 Z " transform="translate(449,465)" style="fill: #2F865C;"/><path d="M0 0 C1.05600497 4.22401987 0.98114481 4.93459997 -0.6875 8.6875 C-1.02136719 9.47511719 -1.35523438 10.26273437 -1.69921875 11.07421875 C-3 13 -3 13 -7 14 C-4.69 9.38 -2.38 4.76 0 0 Z " transform="translate(660,450)" style="fill: #08332B;"/><path d="M0 0 C0.66 0.33 1.32 0.66 2 1 C1.55269531 1.42410156 1.10539063 1.84820312 0.64453125 2.28515625 C-2.4985865 5.33444959 -5.34107078 8.31175055 -7.8125 11.9375 C-8.534375 12.948125 -9.25625 13.95875 -10 15 C-10.66 15 -11.32 15 -12 15 C-10.38462556 11.10082032 -7.72075127 8.28706228 -4.875 5.25 C-4.40707031 4.74339844 -3.93914063 4.23679687 -3.45703125 3.71484375 C-2.30873459 2.47280859 -1.15491328 1.23588506 0 0 Z " transform="translate(597,392)" style="fill: #0C3E21;"/><path d="M0 0 C2 0 2 0 3.69140625 1.57421875 C4.30886719 2.27160156 4.92632812 2.96898437 5.5625 3.6875 C6.18253906 4.37199219 6.80257813 5.05648438 7.44140625 5.76171875 C9.15146863 8.21752262 9.6237708 10.05716611 10 13 C6.07523398 9.29950632 3.01551157 5.48018862 0 1 C0 0.67 0 0.34 0 0 Z " transform="translate(430,313)" style="fill: #6EBF6B;"/><path d="M0 0 C0.33 0 0.66 0 1 0 C1.0270203 2.75006608 1.04684883 5.49986546 1.0625 8.25 C1.07087891 9.02730469 1.07925781 9.80460937 1.08789062 10.60546875 C1.09111328 11.35957031 1.09433594 12.11367188 1.09765625 12.890625 C1.10289307 13.58188477 1.10812988 14.27314453 1.11352539 14.98535156 C0.99437971 17.09973898 0.57618237 18.96641515 0 21 C-0.99 20.67 -1.98 20.34 -3 20 C-2.68289063 19.33613281 -2.36578125 18.67226563 -2.0390625 17.98828125 C-0.78815849 14.39075657 -0.54809948 10.9560199 -0.375 7.1875 C-0.33632813 6.49462891 -0.29765625 5.80175781 -0.2578125 5.08789062 C-0.16426432 3.39232985 -0.08107636 1.69620288 0 0 Z " transform="translate(477,316)" style="fill: #1F8244;"/><path d="M0 0 C1.65 0 3.3 0 5 0 C5.33 1.98 5.66 3.96 6 6 C4.35 5.67 2.7 5.34 1 5 C0.67 3.35 0.34 1.7 0 0 Z " transform="translate(544,178)" style="fill: #57C658;"/><path d="M0 0 C-0.1875 1.8125 -0.1875 1.8125 -1 4 C-5.17857143 7 -5.17857143 7 -8 7 C-7.8125 5.1875 -7.8125 5.1875 -7 3 C-2.82142857 0 -2.82142857 0 0 0 Z " transform="translate(593,898)" style="fill: #223339;"/><path d="M0 0 C0.66 0.33 1.32 0.66 2 1 C0.90437286 2.9631237 -0.20180549 4.92036163 -1.3125 6.875 C-2.23482422 8.51082031 -2.23482422 8.51082031 -3.17578125 10.1796875 C-5 13 -5 13 -8 15 C-7.34 13.02 -6.68 11.04 -6 9 C-5.34 9 -4.68 9 -4 9 C-3.71125 8.071875 -3.4225 7.14375 -3.125 6.1875 C-2 3 -2 3 0 0 Z " transform="translate(658,451)" style="fill: #2A825B;"/><path d="M0 0 C0.99 0.33 1.98 0.66 3 1 C3 1.66 3 2.32 3 3 C1.56570999 3.67354499 0.12742943 4.33859701 -1.3125 5 C-2.51326172 5.556875 -2.51326172 5.556875 -3.73828125 6.125 C-6 7 -6 7 -9 7 C-9 6.34 -9 5.68 -9 5 C-7.88625 4.54625 -6.7725 4.0925 -5.625 3.625 C-2.03800992 2.27534014 -2.03800992 2.27534014 0 0 Z " transform="translate(535,444)" style="fill: #69BB6C;"/><path d="M0 0 C0.99 0.495 0.99 0.495 2 1 C2 1.66 2 2.32 2 3 C3.32 3.33 4.64 3.66 6 4 C6.625 5.8125 6.625 5.8125 7 8 C6.01 9.485 6.01 9.485 5 11 C4.34 11 3.68 11 3 11 C3 10.34 3 9.68 3 9 C2.34 8.67 1.68 8.34 1 8 C1.99 7.67 2.98 7.34 4 7 C3.01 5.824375 3.01 5.824375 2 4.625 C0 2 0 2 0 0 Z " transform="translate(409,425)" style="fill: #103728;"/><path d="M0 0 C4 4.625 4 4.625 4 8 C3.01 8 2.02 8 1 8 C-2 4.66666667 -2 4.66666667 -2 2 C-1.34 2 -0.68 2 0 2 C0 1.34 0 0.68 0 0 Z " transform="translate(343,384)" style="fill: #1C2E32;"/><path d="M0 0 C0 3 0 3 -1.3125 4.6875 C-3 6 -3 6 -6 6 C-6.66 7.32 -7.32 8.64 -8 10 C-9.32 9.67 -10.64 9.34 -12 9 C-8.04 6.03 -4.08 3.06 0 0 Z " transform="translate(566,372)" style="fill: #64BA6B;"/><path d="M0 0 C1.65322266 0.01740234 1.65322266 0.01740234 3.33984375 0.03515625 C4.99693359 0.04869141 4.99693359 0.04869141 6.6875 0.0625 C7.54214844 0.07410156 8.39679688 0.08570313 9.27734375 0.09765625 C9.27734375 1.08765625 9.27734375 2.07765625 9.27734375 3.09765625 C7.48600397 3.15157618 5.69420476 3.19041196 3.90234375 3.22265625 C2.90460938 3.24585938 1.906875 3.2690625 0.87890625 3.29296875 C-1.72265625 3.09765625 -1.72265625 3.09765625 -3.72265625 1.09765625 C-2.72265625 0.09765625 -2.72265625 0.09765625 0 0 Z " transform="translate(438.72265625,747.90234375)" style="fill: #864431;"/><path d="M0 0 C4.66132863 3.57729872 7.73911534 7.10867301 11 12 C8.50638429 10.79618552 6.31856917 9.54571278 4 8 C4 7.34 4 6.68 4 6 C3.34 6 2.68 6 2 6 C1.34 4.02 0.68 2.04 0 0 Z " transform="translate(426,404)" style="fill: #0E3C24;"/><path d="M0 0 C9.59453303 5.0022779 9.59453303 5.0022779 13 9 C10.6875 9.25 10.6875 9.25 8 9 C6.375 7.0625 6.375 7.0625 5 5 C4.01 4.67 3.02 4.34 2 4 C2 3.34 2 2.68 2 2 C1.34 2 0.68 2 0 2 C0 1.34 0 0.68 0 0 Z " transform="translate(450,375)" style="fill: #67BC6A;"/><path d="M0 0 C1.32 0.33 2.64 0.66 4 1 C4 4.3 4 7.6 4 11 C3.34 11 2.68 11 2 11 C1.34 7.37 0.68 3.74 0 0 Z " transform="translate(544,219)" style="fill: #16452F;"/><path d="M0 0 C0.33 0.66 0.66 1.32 1 2 C0.06862408 3.29608947 -0.8703566 4.58671632 -1.8125 5.875 C-2.33457031 6.59429687 -2.85664062 7.31359375 -3.39453125 8.0546875 C-5 10 -5 10 -8 12 C-7.34 10.35 -6.68 8.7 -6 7 C-5.34 7 -4.68 7 -4 7 C-4 5.68 -4 4.36 -4 3 C-2 1.25 -2 1.25 0 0 Z " transform="translate(608,419)" style="fill: #083520;"/><path d="M0 0 C0.99 0 1.98 0 3 0 C3.103125 0.639375 3.20625 1.27875 3.3125 1.9375 C3.539375 2.618125 3.76625 3.29875 4 4 C4.99 4.33 5.98 4.66 7 5 C8.75 6.3125 8.75 6.3125 10 8 C9.578125 10.10546875 9.578125 10.10546875 9 12 C7.49707257 10.18992669 5.99772829 8.37687764 4.5 6.5625 C3.6646875 5.55316406 2.829375 4.54382813 1.96875 3.50390625 C0 1 0 1 0 0 Z " transform="translate(424,400)" style="fill: #65BB6D;"/><path d="M0 0 C1.32 0.33 2.64 0.66 4 1 C0.7 3.97 -2.6 6.94 -6 10 C-6 8.33333333 -6 6.66666667 -6 5 C-5.01 5 -4.02 5 -3 5 C-3 4.34 -3 3.68 -3 3 C-1.75 1.3125 -1.75 1.3125 0 0 Z " transform="translate(597,389)" style="fill: #65C16F;"/><path d="M0 0 C0.66 0.66 1.32 1.32 2 2 C2.70125 1.67 3.4025 1.34 4.125 1 C7.26003116 -0.09044562 9.70563182 -0.15322643 13 0 C10.20344553 1.45879493 7.41743581 2.65385052 4.4375 3.6875 C3.67308594 3.95949219 2.90867187 4.23148437 2.12109375 4.51171875 C0 5 0 5 -3 4 C-2.01 2.68 -1.02 1.36 0 0 Z " transform="translate(571,257)" style="fill: #DEF9DB;"/><path d="M0 0 C2.52349243 3.12432397 4.27256146 6.38060496 6 10 C1.7257442 8.4169423 -0.26531794 5.49431596 -3 2 C-2.34 2 -1.68 2 -1 2 C-0.67 1.34 -0.34 0.68 0 0 Z " transform="translate(360,442)" style="fill: #C6F3D4;"/><path d="M0 0 C-1.6875 1.5625 -1.6875 1.5625 -4 3 C-6.75 2.6875 -6.75 2.6875 -9 2 C-8.67 1.01 -8.34 0.02 -8 -1 C-4.71293093 -2.47351372 -2.99288606 -1.8171094 0 0 Z " transform="translate(556,380)" style="fill: #103029;"/><path d="M0 0 C1.67013418 0.65793165 3.3357865 1.32723284 5 2 C6.8253125 2.680625 6.8253125 2.680625 8.6875 3.375 C12 5 12 5 13.4375 7.1875 C13.623125 7.785625 13.80875 8.38375 14 9 C10.40241608 7.67726488 7.36262865 6.0805802 4.1875 3.9375 C3.39730469 3.41027344 2.60710937 2.88304687 1.79296875 2.33984375 C1.20128906 1.89769531 0.60960937 1.45554687 0 1 C0 0.67 0 0.34 0 0 Z " transform="translate(455,377)" style="fill: #0C331B;"/><path d="M0 0 C3.45195767 1.4258086 5.1014256 3.09746334 7.25 6.125 C8.03117187 7.21167969 8.03117187 7.21167969 8.828125 8.3203125 C9.40820312 9.15175781 9.40820312 9.15175781 10 10 C6.79837298 9.40137646 6.08063485 9.08735442 3.75 6.5625 C2 4 2 4 2 2 C1.34 2 0.68 2 0 2 C0 1.34 0 0.68 0 0 Z " transform="translate(416,298)" style="fill: #113528;"/><path d="M0 0 C0.33 0.99 0.66 1.98 1 3 C0.34 3 -0.32 3 -1 3 C-1.33 3.66 -1.66 4.32 -2 5 C-4.64860427 5.59355614 -7.29197322 5.74209269 -10 6 C-4.4 0 -4.4 0 0 0 Z " transform="translate(610,289)" style="fill: #12392B;"/><path d="M0 0 C3.51656699 1.172189 4.32455474 1.73288174 6 5 C5.95229567 7.77215148 5.50328032 10.25483461 5 13 C4.67 13 4.34 13 4 13 C3.79503906 12.31292969 3.59007812 11.62585938 3.37890625 10.91796875 C3.10949219 10.01691406 2.84007812 9.11585938 2.5625 8.1875 C2.29566406 7.29417969 2.02882813 6.40085937 1.75390625 5.48046875 C1.19612127 3.64526945 0.60655425 1.81966274 0 0 Z " transform="translate(657,275)" style="fill: #3D8464;"/><path d="M0 0 C0.99 0.33 1.98 0.66 3 1 C2.52949219 1.37511719 2.05898438 1.75023437 1.57421875 2.13671875 C-2.06639484 5.12910715 -4.85453304 7.70906609 -7 12 C-7.33 11.34 -7.66 10.68 -8 10 C-7.109375 8.125 -7.109375 8.125 -5.75 6 C-5.09257812 4.948125 -5.09257812 4.948125 -4.421875 3.875 C-3 2 -3 2 0 0 Z " transform="translate(504,197)" style="fill: #0C3723;"/><path d="M0 0 C0.66 0.66 1.32 1.32 2 2 C1.175 2.433125 0.35 2.86625 -0.5 3.3125 C-1.7375 4.1478125 -1.7375 4.1478125 -3 5 C-3 5.99 -3 6.98 -3 8 C-4.32 8.33 -5.64 8.66 -7 9 C-7 8.34 -7 7.68 -7 7 C-7.66 6.67 -8.32 6.34 -9 6 C-6 4 -3 2 0 0 Z " transform="translate(658,500)" style="fill: #DFEBEB;"/><path d="M0 0 C0.66 0 1.32 0 2 0 C1.71125 0.70125 1.4225 1.4025 1.125 2.125 C-0.06453973 5.01683472 -0.06453973 5.01683472 -0.875 8.1875 C-2 11 -2 11 -4.125 12.375 C-4.74375 12.58125 -5.3625 12.7875 -6 13 C-4.31326082 8.50202887 -2.18326108 4.27113698 0 0 Z " transform="translate(616,408)" style="fill: #63BB6A;"/><path d="M0 0 C3.72114571 2.31537955 6.61229661 4.28579473 9 8 C7.35 8 5.7 8 4 8 C3.67 6.35 3.34 4.7 3 3 C2.01 3 1.02 3 0 3 C0 2.01 0 1.02 0 0 Z " transform="translate(642,272)" style="fill: #6BBD6A;"/><path d="M0 0 C2 2 2 2 2 5 C2.66 5.66 3.32 6.32 4 7 C2.35 7.66 0.7 8.32 -1 9 C-1.09765625 2.84765625 -1.09765625 2.84765625 -1 1 C-0.67 0.67 -0.34 0.34 0 0 Z " transform="translate(523,216)" style="fill: #68C26A;"/><path d="M0 0 C0.33 0 0.66 0 1 0 C1.103125 0.94875 1.20625 1.8975 1.3125 2.875 C1.68539295 6.29107501 1.68539295 6.29107501 5 8 C5 8.66 5 9.32 5 10 C3.35 10 1.7 10 0 10 C0 6.7 0 3.4 0 0 Z " transform="translate(458,865)" style="fill: #DC7E51;"/><path d="M0 0 C4.84688192 0.78175515 9.3766367 2.39844278 14 4 C14 4.33 14 4.66 14 5 C10.6875 5.6875 10.6875 5.6875 7 6 C5.3125 4.6875 5.3125 4.6875 4 3 C1.90010348 1.82425289 1.90010348 1.82425289 0 1 C0 0.67 0 0.34 0 0 Z " transform="translate(580,456)" style="fill: #6BB96E;"/><path d="M0 0 C0.33 0 0.66 0 1 0 C0.67 4.95 0.34 9.9 0 15 C-0.99 15 -1.98 15 -3 15 C-2.86722656 14.41992188 -2.73445313 13.83984375 -2.59765625 13.2421875 C-1.60295999 8.84229018 -0.68631668 4.46105842 0 0 Z " transform="translate(480,433)" style="fill: #60C771;"/><path d="M0 0 C0.33 0.99 0.66 1.98 1 3 C-1.31 4.65 -3.62 6.3 -6 8 C-6 7.01 -6 6.02 -6 5 C-5.34 5 -4.68 5 -4 5 C-3.7834375 4.0409375 -3.7834375 4.0409375 -3.5625 3.0625 C-2.72727273 0 -2.72727273 0 0 0 Z " transform="translate(604,288)" style="fill: #5DBC67;"/><path d="M0 0 C2.18994248 3.28491373 2.35277339 4.83095639 2.625 8.6875 C2.69976563 9.68136719 2.77453125 10.67523438 2.8515625 11.69921875 C2.92503906 12.83810547 2.92503906 12.83810547 3 14 C1.68 12.35 0.36 10.7 -1 9 C-0.34 8.67 0.32 8.34 1 8 C0.67 5.36 0.34 2.72 0 0 Z " transform="translate(659,280)" style="fill: #C9F1DB;"/><path d="M0 0 C-1.69179328 2.04219706 -2.63727666 2.91793306 -5.26171875 3.51171875 C-6.06222656 3.56972656 -6.86273437 3.62773437 -7.6875 3.6875 C-8.49574219 3.75324219 -9.30398438 3.81898438 -10.13671875 3.88671875 C-10.75160156 3.92410156 -11.36648438 3.96148437 -12 4 C-11 2 -11 2 -8.25 0.875 C-5.29813104 0.08026605 -3.02780163 -0.17810598 0 0 Z " transform="translate(568,284)" style="fill: #248C4B;"/><path d="M0 0 C1.98 0.495 1.98 0.495 4 1 C3.67 2.65 3.34 4.3 3 6 C1.68 5.67 0.36 5.34 -1 5 C-0.67 3.35 -0.34 1.7 0 0 Z " transform="translate(641,274)" style="fill: #59C553;"/><path d="M0 0 C0.66 0.33 1.32 0.66 2 1 C0.9375 3.4375 0.9375 3.4375 -1 6 C-4.6875 6.8125 -4.6875 6.8125 -8 7 C-5.42215154 4.35247996 -3.08351902 2.05567935 0 0 Z " transform="translate(371,258)" style="fill: #D6E3E4;"/><path d="M0 0 C0.33 0 0.66 0 1 0 C1.08096803 1.45742463 1.13917774 2.91612807 1.1875 4.375 C1.23970703 5.59316406 1.23970703 5.59316406 1.29296875 6.8359375 C1.19628906 7.55007813 1.09960938 8.26421875 1 9 C-0.485 9.99 -0.485 9.99 -2 11 C-1.85892253 9.54119891 -1.71197585 8.08296449 -1.5625 6.625 C-1.48128906 5.81289063 -1.40007812 5.00078125 -1.31640625 4.1640625 C-1 2 -1 2 0 0 Z " transform="translate(346,307)" style="fill: #79C873;"/><path d="M0 0 C0.66 0.99 1.32 1.98 2 3 C1.67 3.66 1.34 4.32 1 5 C0.34 5 -0.32 5 -1 5 C-1.33 7.31 -1.66 9.62 -2 12 C-3.1171875 10.265625 -3.1171875 10.265625 -4 8 C-3.3203125 5.859375 -3.3203125 5.859375 -2.125 3.75 C-1.73570312 3.04359375 -1.34640625 2.3371875 -0.9453125 1.609375 C-0.63335937 1.07828125 -0.32140625 0.5471875 0 0 Z " transform="translate(410,180)" style="fill: #1F3037;"/><path d="M0 0 C0 3 0 3 -1.375 4.5625 C-1.91125 5.036875 -2.4475 5.51125 -3 6 C-3.66 6.66 -4.32 7.32 -5 8 C-6.32 7.67 -7.64 7.34 -9 7 C-6.03 4.69 -3.06 2.38 0 0 Z " transform="translate(468,176)" style="fill: #72C874;"/><path d="M0 0 C0 0.66 0 1.32 0 2 C-2.8125 4.1875 -2.8125 4.1875 -6 6 C-6.99 5.67 -7.98 5.34 -9 5 C-8.360625 4.71125 -7.72125 4.4225 -7.0625 4.125 C-4.84793921 3.17176549 -4.84793921 3.17176549 -4 1 C-3 0 -3 0 0 0 Z " transform="translate(571,457)" style="fill: #0A3129;"/><path d="M0 0 C1.15941038 3.47823115 0.70820884 5.45895578 0 9 C-1.5625 7.25 -1.5625 7.25 -3 5 C-2.8125 2.8125 -2.8125 2.8125 -2 1 C-1.34 0.67 -0.68 0.34 0 0 Z " transform="translate(663,391)" style="fill: #0A3627;"/><path d="M0 0 C1.98 1.65 3.96 3.3 6 5 C5.67 5.66 5.34 6.32 5 7 C3.35 6.67 1.7 6.34 0 6 C0 4.02 0 2.04 0 0 Z " transform="translate(562,179)" style="fill: #25874D;"/><path d="M0 0 C3 1 3 1 4.1875 3.0625 C4.455625 3.701875 4.72375 4.34125 5 5 C4.34 5.66 3.68 6.32 3 7 C1.68 5.68 0.36 4.36 -1 3 C-0.67 2.01 -0.34 1.02 0 0 Z " transform="translate(593,168)" style="fill: #1C2F32;"/><path d="M0 0 C1.12894876 0.93274109 2.25300876 1.87140122 3.375 2.8125 C4.00148438 3.33457031 4.62796875 3.85664063 5.2734375 4.39453125 C7 6 7 6 9 9 C5.18063472 7.44396229 2.73955562 5.04395069 0 2 C0 1.34 0 0.68 0 0 Z " transform="translate(443,423)" style="fill: #0E3C21;"/><path d="M0 0 C0.66 0 1.32 0 2 0 C1.42647107 3.87132028 -0.48704352 6.08172796 -3 9 C-3 5.30581799 -1.71820705 3.22163822 0 0 Z " transform="translate(575,325)" style="fill: #0D2F25;"/><path d="M0 0 C0.66 0.33 1.32 0.66 2 1 C0.63016497 4.16115776 0.0109362 4.9927092 -3 7 C-3.33 5.68 -3.66 4.36 -4 3 C-2.68 2.01 -1.36 1.02 0 0 Z " transform="translate(445,178)" style="fill: #1C393D;"/><path d="M0 0 C1.32 0.33 2.64 0.66 4 1 C4 1.99 4 2.98 4 4 C4.99 4.33 5.98 4.66 7 5 C6.67 5.99 6.34 6.98 6 8 C4.9970458 6.85675161 3.99770973 5.71032809 3 4.5625 C2.443125 3.92441406 1.88625 3.28632813 1.3125 2.62890625 C0 1 0 1 0 0 Z " transform="translate(435,413)" style="fill: #6AC171;"/><path d="M0 0 C0.33 0 0.66 0 1 0 C1 3.3 1 6.6 1 10 C1.99 10.33 2.98 10.66 4 11 C2.02 11.99 2.02 11.99 0 13 C0 8.71 0 4.42 0 0 Z " transform="translate(587,232)" style="fill: #0D2A27;"/><path d="M0 0 C3.36720387 1.39332574 4.9859524 2.9789286 7 6 C6.01 6.33 5.02 6.66 4 7 C0 2.25 0 2.25 0 0 Z " transform="translate(554,183)" style="fill: #63B06A;"/><path d="M0 0 C1.98 0 3.96 0 6 0 C6 1.32 6 2.64 6 4 C4.125 3.6875 4.125 3.6875 2 3 C1.34 2.01 0.68 1.02 0 0 Z " transform="translate(536,498)" style="fill: #212F33;"/><path d="M0 0 C3.3 1.65 6.6 3.3 10 5 C6.37673261 6.2077558 5.35853631 5.54311128 2 4 C2 3.34 2 2.68 2 2 C1.34 2 0.68 2 0 2 C0 1.34 0 0.68 0 0 Z " transform="translate(379,482)" style="fill: #0B3A2D;"/><path d="M0 0 C0.99 0.33 1.98 0.66 3 1 C0.88229834 3.32947183 -1.03335588 4.88750845 -4 6 C-4.99 5.67 -5.98 5.34 -7 5 C-6.34 5 -5.68 5 -5 5 C-5 4.34 -5 3.68 -5 3 C-4.360625 2.87625 -3.72125 2.7525 -3.0625 2.625 C-2.0415625 2.315625 -2.0415625 2.315625 -1 2 C-0.67 1.34 -0.34 0.68 0 0 Z " transform="translate(629,481)" style="fill: #2A7F57;"/><path d="M0 0 C0.66 0.33 1.32 0.66 2 1 C-0.25 3.5625 -0.25 3.5625 -3 6 C-4.32 5.67 -5.64 5.34 -7 5 C-4.69 3.35 -2.38 1.7 0 0 Z " transform="translate(402,437)" style="fill: #0B351D;"/><path d="M0 0 C2.29013653 3.4352048 2.17842973 4.985331 2 9 C0.68 8.34 -0.64 7.68 -2 7 C-1.34 4.69 -0.68 2.38 0 0 Z " transform="translate(358,436)" style="fill: #E8FAE9;"/><path d="M0 0 C0 3.15081975 -0.27898465 4.41847698 -2 7 C-4.125 7.75 -4.125 7.75 -6 8 C-4.55746343 4.63408134 -2.66735273 2.48952921 0 0 Z " transform="translate(606,425)" style="fill: #67B770;"/><path d="M0 0 C2.31 0.33 4.62 0.66 7 1 C7 1.66 7 2.32 7 3 C7.99 3.33 8.98 3.66 10 4 C9.01 4.495 9.01 4.495 8 5 C6.0546875 4.22265625 6.0546875 4.22265625 3.875 3.0625 C3.15054687 2.68222656 2.42609375 2.30195313 1.6796875 1.91015625 C1.12539063 1.60980469 0.57109375 1.30945313 0 1 C0 0.67 0 0.34 0 0 Z " transform="translate(482,360)" style="fill: #6CBE6F;"/><path d="M0 0 C5 2 5 2 10 4 C8.375 4.6875 8.375 4.6875 6 5 C2.75 3.5625 2.75 3.5625 0 2 C0 1.34 0 0.68 0 0 Z " transform="translate(372,344)" style="fill: #5EB262;"/><path d="M0 0 C1.64826111 2.96687001 2.44271087 5.65626525 3 9 C0 8 0 8 -1.3125 6.1875 C-2 4 -2 4 -1.125 1.75 C-0.75375 1.1725 -0.3825 0.595 0 0 Z " transform="translate(316,278)" style="fill: #1D3235;"/><path d="M0 0 C0 1.65 0 3.3 0 5 C-0.99 5 -1.98 5 -3 5 C-3.66 3.35 -4.32 1.7 -5 0 C-2 -1 -2 -1 0 0 Z " transform="translate(491,259)" style="fill: #52C459;"/><path d="M0 0 C0.66 0.99 1.32 1.98 2 3 C0.1875 4.5625 0.1875 4.5625 -2 6 C-2.99 5.67 -3.98 5.34 -5 5 C-3.35 3.35 -1.7 1.7 0 0 Z " transform="translate(342,245)" style="fill: #233539;"/><path d="M0 0 C0.33 0 0.66 0 1 0 C1 2.97 1 5.94 1 9 C-1.475 8.01 -1.475 8.01 -4 7 C-3.01 6.67 -2.02 6.34 -1 6 C-0.67 4.02 -0.34 2.04 0 0 Z " transform="translate(491,216)" style="fill: #6BBD73;"/><path d="M0 0 C0.66 0.33 1.32 0.66 2 1 C2 1.66 2 2.32 2 3 C0.35 3 -1.3 3 -3 3 C-3.33 4.32 -3.66 5.64 -4 7 C-4.66 5.02 -5.32 3.04 -6 1 C-4.7934375 1.0309375 -4.7934375 1.0309375 -3.5625 1.0625 C-1.06645115 1.29633621 -1.06645115 1.29633621 0 0 Z " transform="translate(568,184)" style="fill: #388B58;"/><path d="M0 0 C2.96175123 0.61277612 4.38058783 1.25372522 7 3 C7 3.66 7 4.32 7 5 C6.01 5.33 5.02 5.66 4 6 C2.68 4.02 1.36 2.04 0 0 Z " transform="translate(551,170)" style="fill: #3B7560;"/><path d="M0 0 C1.98 0 3.96 0 6 0 C3.14693203 2.32472205 0.45925163 3.7508258 -3 5 C-2.67 4.01 -2.34 3.02 -2 2 C-1.34 2 -0.68 2 0 2 C0 1.34 0 0.68 0 0 Z " transform="translate(552,467)" style="fill: #0C332C;"/><path d="M0 0 C1.485 0.99 1.485 0.99 3 2 C2.67 3.32 2.34 4.64 2 6 C1.01 6 0.02 6 -1 6 C-0.67 4.02 -0.34 2.04 0 0 Z " transform="translate(652,434)" style="fill: #259451;"/><path d="M0 0 C2.45823172 3.68734758 3.01242616 6.69699971 4 11 C3.01 10.67 2.02 10.34 1 10 C0.67 6.7 0.34 3.4 0 0 Z " transform="translate(344,357)" style="fill: #D3F4D4;"/><path d="M0 0 C0.99 0.33 1.98 0.66 3 1 C1.35 2.98 -0.3 4.96 -2 7 C-2.6875 5.1875 -2.6875 5.1875 -3 3 C-1.5625 1.25 -1.5625 1.25 0 0 Z " transform="translate(590,344)" style="fill: #0E3522;"/><path d="M0 0 C2.97 0.495 2.97 0.495 6 1 C6 1.66 6 2.32 6 3 C6.66 3.33 7.32 3.66 8 4 C7.01 4.495 7.01 4.495 6 5 C3.98079663 3.69593116 1.98075027 2.36176581 0 1 C0 0.67 0 0.34 0 0 Z " transform="translate(630,325)" style="fill: #63B96A;"/><path d="M0 0 C0.33 0.99 0.66 1.98 1 3 C0.360625 3.12375 -0.27875 3.2475 -0.9375 3.375 C-1.618125 3.58125 -2.29875 3.7875 -3 4 C-3.33 4.66 -3.66 5.32 -4 6 C-4.99 5.67 -5.98 5.34 -7 5 C-2.25 1.125 -2.25 1.125 0 0 Z " transform="translate(381,266)" style="fill: #71C670;"/><path d="M0 0 C3.375 -0.125 3.375 -0.125 7 0 C7.66 0.66 8.32 1.32 9 2 C6.69 2.33 4.38 2.66 2 3 C1.34 2.01 0.68 1.02 0 0 Z " transform="translate(434,261)" style="fill: #66C168;"/><path d="M0 0 C-3.6441774 2.4294516 -5.71241272 2.16179575 -10 2 C-6.80505194 -1.19494806 -4.22040044 -1.35655728 0 0 Z " transform="translate(584,259)" style="fill: #79C275;"/><path d="M0 0 C0.99 0.33 1.98 0.66 3 1 C1.35 2.98 -0.3 4.96 -2 7 C-2.66 6.67 -3.32 6.34 -4 6 C-1.125 1.125 -1.125 1.125 0 0 Z " transform="translate(575,253)" style="fill: #ECFBEE;"/></svg>