<svg id="svg" version="1.1" xmlns="http://www.w3.org/2000/svg" style="display: block;" viewBox="0 0 1024 1024"><path d="M0 0 C337.92 0 675.84 0 1024 0 C1024 337.92 1024 675.84 1024 1024 C686.08 1024 348.16 1024 0 1024 C0 686.08 0 348.16 0 0 Z " transform="translate(0,0)" style="fill: #EAF6F5;"/><path d="M0 0 C2.26683903 0.3904813 4.53717772 0.7493978 6.80957031 1.10595703 C20.25019187 3.31195901 33.74829931 7.01304466 45.58300781 13.95361328 C46.23197021 14.32671631 46.88093262 14.69981934 47.54956055 15.08422852 C54.28310686 19.1167431 59.82103171 24.15928149 65.27050781 29.76611328 C66.01558594 30.52537109 66.76066406 31.28462891 67.52832031 32.06689453 C70.85164428 35.63913143 72.56723673 37.83474254 73.27050781 42.76611328 C73.93050781 42.76611328 74.59050781 42.76611328 75.27050781 42.76611328 C75.49480469 42.06228516 75.71910156 41.35845703 75.95019531 40.63330078 C77.55270991 37.15328387 79.78952056 34.63833334 82.39550781 31.89111328 C82.89268311 31.36227539 83.3898584 30.8334375 83.90209961 30.28857422 C85.34592937 28.76855721 86.80367397 27.2639107 88.27050781 25.76611328 C88.934375 25.08806641 89.59824219 24.41001953 90.28222656 23.71142578 C106.31861488 8.61426194 128.3099847 3.56170487 149.27050781 -0.23388672 C150.27500977 -0.42225098 151.27951172 -0.61061523 152.31445312 -0.8046875 C158.79501761 -1.96719979 165.06312632 -2.59861779 171.64550781 -2.60888672 C172.495 -2.63337891 173.34449219 -2.65787109 174.21972656 -2.68310547 C179.73314836 -2.70882905 182.93024846 -1.95507032 187.27050781 1.76611328 C191.48998266 8.1633816 190.1961715 14.4345292 189.27050781 21.76611328 C189.15578125 22.82701172 189.04105469 23.88791016 188.92285156 24.98095703 C185.91617731 49.53059829 178.83634869 79.27575447 161.27050781 97.76611328 C160.61050781 97.76611328 159.95050781 97.76611328 159.27050781 97.76611328 C159.00625 98.35134766 158.74199219 98.93658203 158.46972656 99.53955078 C151.97605879 111.59619778 135.48850834 119.9309837 123.27050781 124.76611328 C122.49578125 125.12189453 121.72105469 125.47767578 120.92285156 125.84423828 C110.83686581 130.127985 101.74188884 130.20183405 90.27050781 131.76611328 C90.60050781 179.94611328 90.93050781 228.12611328 91.27050781 277.76611328 C106.14316126 256.5194655 106.68507001 240.42942958 106.13354492 215.38476562 C106.06722019 212.11607386 106.02528049 208.84771771 105.98535156 205.57861328 C105.95529526 204.58168457 105.92523895 203.58475586 105.89427185 202.55761719 C105.83059631 196.59273119 106.32807314 193.3254225 110.27050781 188.76611328 C114.21269176 185.1823097 118.41784482 185.24799551 123.52050781 185.43798828 C145.82213486 188.09897787 171.59820275 221.7563376 184.71435547 238.20239258 C186.5007333 240.48810221 188.25887501 242.79407605 190.00732422 245.10888672 C191.24536643 246.73312918 192.50832949 248.33395543 193.78222656 249.93017578 C217.81368941 280.19777029 236.22066132 316.22345249 245.73242188 353.68554688 C246.24417675 355.66430141 246.79919112 357.63171875 247.35644531 359.59814453 C259.78059042 404.9509449 253.31383043 453.09946343 230.39086914 494.01147461 C223.75931853 505.35180316 215.84062445 515.43291931 206.84863281 524.97705078 C204.9893909 526.98841249 203.27322637 528.98599572 201.56738281 531.11767578 C200.80941406 531.99166016 200.05144531 532.86564453 199.27050781 533.76611328 C198.61050781 533.76611328 197.95050781 533.76611328 197.27050781 533.76611328 C196.94050781 534.75611328 196.61050781 535.74611328 196.27050781 536.76611328 C194.16135071 538.6083256 192.05604165 540.32259538 189.83300781 542.01611328 C189.25357422 542.46857422 188.67414063 542.92103516 188.07714844 543.38720703 C170.18104071 557.23100001 150.75296536 567.65502201 129.27050781 574.76611328 C128.60535156 574.98734863 127.94019531 575.20858398 127.25488281 575.43652344 C122.97291 576.81624525 118.67446815 577.85631309 114.27050781 578.76611328 C113.55604492 578.91419434 112.84158203 579.06227539 112.10546875 579.21484375 C86.50590357 584.23850156 57.56186529 584.1416074 32.27050781 577.76611328 C30.95471957 577.47167116 29.63833992 577.17985521 28.32128906 576.89111328 C0.22528728 570.20301084 -25.81834601 555.52174157 -46.72949219 535.76611328 C-48.24884997 534.47271128 -49.76967735 533.18103357 -51.29199219 531.89111328 C-56.40739138 527.35209709 -60.51280646 522.12732799 -64.72949219 516.76611328 C-65.41011719 515.95142578 -66.09074219 515.13673828 -66.79199219 514.29736328 C-95.3167689 479.97849129 -106.36055339 433.87092116 -102.39257812 390.04492188 C-101.46727565 381.90075732 -100.18826064 373.8303759 -98.72949219 365.76611328 C-98.5905957 364.97269531 -98.45169922 364.17927734 -98.30859375 363.36181641 C-89.26541811 313.61284508 -60.9142514 267.10746179 -27.72949219 229.76611328 C-26.87097656 228.79544922 -26.01246094 227.82478516 -25.12792969 226.82470703 C-13.85143791 214.30473505 -2.11552505 202.04004312 11.27050781 191.76611328 C12.16640625 191.03005859 13.06230469 190.29400391 13.98535156 189.53564453 C21.1304096 183.78016414 28.68694529 178.82778486 36.45800781 173.95361328 C37.46758545 173.3192334 38.47716309 172.68485352 39.51733398 172.03125 C45.6779546 168.21722041 51.72488206 165.03892616 58.27050781 161.76611328 C58.60050781 151.86611328 58.93050781 141.96611328 59.27050781 131.76611328 C54.65050781 131.43611328 50.03050781 131.10611328 45.27050781 130.76611328 C29.48662416 128.07204635 14.6126113 120.86979867 2.27050781 110.76611328 C1.56796875 110.21439453 0.86542969 109.66267578 0.14160156 109.09423828 C-25.84303021 87.73700669 -36.46894098 52.04322454 -39.72949219 19.76611328 C-41.02921525 5.47908113 -41.02921525 5.47908113 -37.35449219 0.89111328 C-28.35301494 -6.39579687 -10.67665639 -1.85451177 0 0 Z " transform="translate(441.7294921875,222.23388671875)" style="fill: #133034;"/><path d="M0 0 C0 116.49 0 232.98 0 353 C-9.02040816 353 -9.02040816 353 -13.35546875 352.08203125 C-14.30067383 351.88262939 -15.24587891 351.68322754 -16.21972656 351.4777832 C-17.1990918 351.25823975 -18.17845703 351.03869629 -19.1875 350.8125 C-20.21198242 350.58328857 -21.23646484 350.35407715 -22.29199219 350.11791992 C-57.05515461 342.08314205 -88.74396836 319.16264803 -108.13916016 289.24267578 C-125.41373199 261.42378512 -131.27810423 233.35671218 -130 201 C-129.96132813 200.00645508 -129.92265625 199.01291016 -129.8828125 197.98925781 C-129.03189988 179.88859443 -125.26020757 161.80621178 -118.26953125 145.05078125 C-117.32661605 142.78488349 -116.45855329 140.53959794 -115.63671875 138.23046875 C-112.13366014 128.40800268 -107.88249251 119.20862224 -103 110 C-102.58057129 109.19981445 -102.16114258 108.39962891 -101.72900391 107.57519531 C-96.21593508 97.09774215 -90.4185002 87.15290801 -83.27685547 77.70507812 C-81.9317903 75.90891462 -80.62151968 74.09099791 -79.31640625 72.265625 C-68.92039333 57.77006274 -57.63702699 44.35646198 -44.015625 32.74609375 C-42.64577617 31.55942238 -41.30241472 30.34162009 -39.984375 29.09765625 C-8.99022346 0 -8.99022346 0 0 0 Z " transform="translate(501,419)" style="fill: #49D190;"/><path d="M0 0 C0.33 0 0.66 0 1 0 C1.33 48.18 1.66 96.36 2 146 C14.61482742 127.97881796 17.39948933 113.93364523 17.6875 92.625 C17.72076556 90.90622556 17.75526328 89.18747451 17.79101562 87.46875 C17.87484195 83.31263197 17.94213684 79.15655721 18 75 C18.495 75.99 18.495 75.99 19 77 C19.54140625 77.25523437 20.0828125 77.51046875 20.640625 77.7734375 C24.09266838 79.56804283 26.82442218 82.08066227 29.75 84.625 C30.37471191 85.16406982 30.99942383 85.70313965 31.64306641 86.25854492 C35.6696284 89.76178979 39.51083925 93.38528096 43.22265625 97.22265625 C45.01048049 99.01048049 46.8761614 100.62534568 48.8125 102.25 C54.35545082 107.03807424 59.14917651 112.53067723 64 118 C64.81621826 118.91507324 64.81621826 118.91507324 65.64892578 119.84863281 C72.25858461 127.27713698 78.48881978 134.70723354 84 143 C84.6703125 143.94617188 85.340625 144.89234375 86.03125 145.8671875 C96.17957269 160.19633327 104.86770341 174.95813291 112.08349609 190.97460938 C112.85696514 192.6839059 113.65433846 194.38235577 114.45703125 196.078125 C121.84743547 211.75047427 126.41317475 227.89560295 130.1328125 244.765625 C130.34768311 245.73677246 130.34768311 245.73677246 130.56689453 246.72753906 C131.68095011 252.5728769 132.18560326 258.31470429 132.2734375 264.2578125 C132.28605621 265.03470932 132.29867493 265.81160614 132.31167603 266.61204529 C132.53032322 283.30506132 132.61867513 299.07120242 127 315 C126.54197998 316.33417969 126.54197998 316.33417969 126.07470703 317.6953125 C119.46849654 336.65886725 110.96575001 353.18055928 97.98046875 368.625 C95.99534886 370.94195511 95.99534886 370.94195511 94.36328125 373.3125 C93.68845703 374.1478125 93.68845703 374.1478125 93 375 C92.34 375 91.68 375 91 375 C90.34 376.32 89.68 377.64 89 379 C88.34 379 87.68 379 87 379 C87 379.66 87 380.32 87 381 C80.57566792 386.99685751 73.31557073 392.15193975 66 397 C65.06027344 397.63679688 64.12054687 398.27359375 63.15234375 398.9296875 C50.94616964 406.86138597 37.69071856 412.32090055 23.625 416 C22.85406006 416.20778076 22.08312012 416.41556152 21.28881836 416.62963867 C16.52980779 417.7778109 12.08851914 418.09098272 7.18896484 418.05078125 C5.44647964 418.03978394 5.44647964 418.03978394 3.66879272 418.02856445 C2.78809113 418.01913818 1.90738953 418.00971191 1 418 C0.06818413 395.89777821 -0.14191427 373.83446875 -0.11606562 351.71535134 C-0.11166866 346.97554811 -0.11321396 342.23574586 -0.1139679 337.49594116 C-0.11448738 329.32131747 -0.11140143 321.14670188 -0.10573006 312.97208023 C-0.09753605 301.15355285 -0.09499183 289.3350293 -0.09374207 277.51649939 C-0.09156383 258.33277472 -0.08493736 239.14905436 -0.07543945 219.96533203 C-0.06623334 201.35139996 -0.05916823 182.73746906 -0.05493164 164.12353516 C-0.05466892 162.97246258 -0.05440619 161.82139 -0.05413551 160.63543643 C-0.05283029 154.85973582 -0.05156663 149.08403521 -0.05032361 143.30833459 C-0.03998931 95.53888676 -0.0224048 47.76944359 0 0 Z " transform="translate(531,354)" style="fill: #4BCE8E;"/><path d="M0 0 C2.6977668 1.25968894 4.91347914 2.60238552 7.171875 4.5390625 C8.0388501 5.28023315 8.0388501 5.28023315 8.92333984 6.03637695 C9.5261377 6.56062256 10.12893555 7.08486816 10.75 7.625 C11.37471191 8.16406982 11.99942383 8.70313965 12.64306641 9.25854492 C16.6696284 12.76178979 20.51083925 16.38528096 24.22265625 20.22265625 C26.01048049 22.01048049 27.8761614 23.62534568 29.8125 25.25 C35.35545082 30.03807424 40.14917651 35.53067723 45 41 C45.54414551 41.61004883 46.08829102 42.22009766 46.64892578 42.84863281 C53.25858461 50.27713698 59.48881978 57.70723354 65 66 C65.6703125 66.94617188 66.340625 67.89234375 67.03125 68.8671875 C77.17957269 83.19633327 85.86770341 97.95813291 93.08349609 113.97460938 C93.85696514 115.6839059 94.65433846 117.38235577 95.45703125 119.078125 C102.84743547 134.75047427 107.41317475 150.89560295 111.1328125 167.765625 C111.34768311 168.73677246 111.34768311 168.73677246 111.56689453 169.72753906 C112.68095011 175.5728769 113.18560326 181.31470429 113.2734375 187.2578125 C113.29236557 188.42315773 113.29236557 188.42315773 113.31167603 189.61204529 C113.53032322 206.30506132 113.61867513 222.07120242 108 238 C107.69465332 238.88945313 107.38930664 239.77890625 107.07470703 240.6953125 C100.46849654 259.65886725 91.96575001 276.18055928 78.98046875 291.625 C76.99534886 293.94195511 76.99534886 293.94195511 75.36328125 296.3125 C74.68845703 297.1478125 74.68845703 297.1478125 74 298 C73.34 298 72.68 298 72 298 C71.34 299.32 70.68 300.64 70 302 C69.34 302 68.68 302 68 302 C68 302.66 68 303.32 68 304 C61.57566792 309.99685751 54.31557073 315.15193975 47 320 C46.06027344 320.63679688 45.12054687 321.27359375 44.15234375 321.9296875 C31.94616964 329.86138597 18.69071856 335.32090055 4.625 339 C3.85406006 339.20778076 3.08312012 339.41556152 2.28881836 339.62963867 C-4.83811249 341.34910198 -10.20177827 341 -18 341 C-18 331.1 -18 321.2 -18 311 C-13.3903125 309.7934375 -13.3903125 309.7934375 -8.6875 308.5625 C7.97102009 303.92353408 22.43946122 296.69796226 36 286 C36.71542969 285.44441406 37.43085937 284.88882812 38.16796875 284.31640625 C59.81268666 266.68527841 74.43918202 236.32826302 78 209 C78.32284891 203.95797694 78.38976815 198.92570574 78.375 193.875 C78.37445618 193.17435425 78.37391235 192.4737085 78.37335205 191.75183105 C78.30115611 171.39488639 74.64567023 152.22742708 68 133 C67.71672852 132.175 67.43345703 131.35 67.14160156 130.5 C59.09115126 107.44279869 48.5914606 84.10979387 33.8671875 64.515625 C32.1513585 62.20392233 30.56308845 59.85395025 29 57.4375 C23.7671675 49.51067557 17.56827424 42.40598766 11.1796875 35.3984375 C8.54621278 32.50067141 5.97474907 29.55242919 3.41015625 26.59375 C2.31584855 25.3569701 1.16771869 24.16771869 0 23 C-0.22705078 20.66162109 -0.22705078 20.66162109 -0.1953125 17.7734375 C-0.18886719 16.7421875 -0.18242188 15.7109375 -0.17578125 14.6484375 C-0.15902344 13.56820313 -0.14226563 12.48796875 -0.125 11.375 C-0.11597656 10.28703125 -0.10695313 9.1990625 -0.09765625 8.078125 C-0.07403409 5.38519848 -0.04109556 2.69270745 0 0 Z " transform="translate(550,431)" style="fill: #04A477;"/><path d="M0 0 C1.62240855 18.41059298 1.62240855 18.41059298 -1.76953125 23.82421875 C-4.4007038 25.85179436 -7.08732786 27.40416814 -10 29 C-12.26640786 30.59310923 -14.44369057 32.29294352 -16.625 34 C-17.45584106 34.63397705 -17.45584106 34.63397705 -18.3034668 35.28076172 C-22.93781076 38.84352131 -26.99647591 42.75942514 -31 47 C-33.74525035 49.76867399 -36.5174342 52.50814771 -39.3046875 55.234375 C-45.69942636 61.51179551 -51.75808528 67.70791418 -57 75 C-57.8340552 76.10819002 -58.67017419 77.21482833 -59.5078125 78.3203125 C-68.58902897 90.38258236 -76.73314016 102.83733344 -83.2890625 116.45703125 C-84.47824353 118.91955908 -85.68988389 121.34299674 -86.9609375 123.76171875 C-97.11390015 143.20143359 -104.05227595 164.4355574 -108 186 C-108.20625 187.08539062 -108.4125 188.17078125 -108.625 189.2890625 C-111.52736152 207.14664796 -111.56456717 226.43220481 -107 244 C-106.80664062 244.75297363 -106.61328125 245.50594727 -106.4140625 246.28173828 C-100.05708253 270.17436902 -87.0784762 290.31347518 -69.4375 307.5 C-67 310 -67 310 -67 312 C-68.6796875 313.65625 -68.6796875 313.65625 -70.875 315.5 C-72.99035504 317.28933258 -75.04019124 319.04019124 -77 321 C-80.2921671 320.6663033 -81.98212397 319.40181385 -84.28515625 317.11328125 C-84.89286865 316.51185303 -85.50058105 315.9104248 -86.12670898 315.29077148 C-86.76552002 314.63794189 -87.40433105 313.9851123 -88.0625 313.3125 C-88.72644775 312.63840088 -89.39039551 311.96430176 -90.07446289 311.26977539 C-116.32970168 284.19870478 -130.78114708 249.22988146 -130.33178711 211.49633789 C-130.25221015 207.99566437 -130.13820502 204.49882258 -130 201 C-129.96132813 200.00645508 -129.92265625 199.01291016 -129.8828125 197.98925781 C-129.03189988 179.88859443 -125.26020757 161.80621178 -118.26953125 145.05078125 C-117.32661605 142.78488349 -116.45855329 140.53959794 -115.63671875 138.23046875 C-112.13366014 128.40800268 -107.88249251 119.20862224 -103 110 C-102.58057129 109.19981445 -102.16114258 108.39962891 -101.72900391 107.57519531 C-96.21593508 97.09774215 -90.4185002 87.15290801 -83.27685547 77.70507812 C-81.9317903 75.90891462 -80.62151968 74.09099791 -79.31640625 72.265625 C-68.92039333 57.77006274 -57.63702699 44.35646198 -44.015625 32.74609375 C-42.64577617 31.55942238 -41.30241472 30.34162009 -39.984375 29.09765625 C-8.99022346 0 -8.99022346 0 0 0 Z " transform="translate(501,419)" style="fill: #F2FDFA;"/><path d="M0 0 C-0.37511719 0.98097656 -0.75023437 1.96195313 -1.13671875 2.97265625 C-1.65430596 4.33568701 -2.17117708 5.69898982 -2.6875 7.0625 C-2.96150635 7.78477783 -3.2355127 8.50705566 -3.51782227 9.2512207 C-5.31067544 14.02540096 -6.91361047 18.82121277 -8.4375 23.6875 C-12.39992591 35.63767339 -18.03833564 45.15964412 -27 54 C-27.71027344 54.72058594 -28.42054688 55.44117188 -29.15234375 56.18359375 C-39.68006982 66.25442031 -51.59208746 70.34528227 -65.91015625 70.0703125 C-66.59980469 70.04710937 -67.28945313 70.02390625 -68 70 C-68.94342569 49.72070204 -65.67252934 35.11495217 -51.9453125 19.69140625 C-41.40154719 9.48583719 -14.57669772 -5.25189844 0 0 Z " transform="translate(600,252)" style="fill: #4BC98F;"/><path d="M0 0 C20.01668188 0.96854912 38.9918432 8.54337113 53 23 C53.57105469 23.56203125 54.14210938 24.1240625 54.73046875 24.703125 C64.15169298 34.68138819 67.37659371 47.1848866 67.125 60.5 C67.11597656 61.4178125 67.10695313 62.335625 67.09765625 63.28125 C67.07432432 65.52111556 67.04159235 67.76041183 67 70 C51.83831521 71.0744501 38.89527529 64.90665883 27.3125 55.375 C12.09540675 41.12450977 4.64727829 19.82533497 0 0 Z " transform="translate(434,252)" style="fill: #49CB8F;"/><path d="M0 0 C3.86925128 -0.00219511 7.73822024 -0.02046948 11.60742188 -0.03930664 C64.38881182 -0.1570033 64.38881182 -0.1570033 77.87304688 7.18530273 C77.54304687 8.83530273 77.21304688 10.48530273 76.87304688 12.18530273 C67.75525217 14.28852953 58.78373393 15.90325276 49.47070312 16.84936523 C48.22958267 16.97550201 46.98846222 17.10163879 45.70973206 17.2315979 C31.93534791 18.51930605 18.18377786 18.65433178 4.3595047 18.57141876 C2.27430977 18.56010614 0.18916337 18.55449853 -1.89605713 18.55023193 C-68.90633924 18.3863801 -68.90633924 18.3863801 -77.95654297 11.86743164 C-79.12695312 10.18530273 -79.12695312 10.18530273 -79.03320312 8.1027832 C-78.12695312 6.18530273 -78.12695312 6.18530273 -74.62695312 4.50561523 C-52.05592428 -2.90113002 -23.37759416 -0.0014781 0 0 Z " transform="translate(518.126953125,853.814697265625)" style="fill: #D4E7E5;"/><path d="M0 0 C2 1.375 2 1.375 4 3 C4 3.66 4 4.32 4 5 C4.66 5 5.32 5 6 5 C6 5.66 6 6.32 6 7 C6.66 7 7.32 7 8 7 C9.18050534 8.15710793 10.35568851 9.32021205 11.50146484 10.51171875 C14.24486342 13.23634529 17.29158003 15.59303849 20.3125 18 C20.93833984 18.50789062 21.56417969 19.01578125 22.20898438 19.5390625 C40.43125328 34.11687762 61.27188299 38.00235949 83.89379883 40.67456055 C86 41 86 41 89 42 C89 50.91 89 59.82 89 69 C79.97959184 69 79.97959184 69 75.64453125 68.08203125 C74.69932617 67.88262939 73.75412109 67.68322754 72.78027344 67.4777832 C71.8009082 67.25823975 70.82154297 67.03869629 69.8125 66.8125 C68.78801758 66.58328857 67.76353516 66.35407715 66.70800781 66.11791992 C45.61758182 61.24330909 27.38798802 50.6152851 10 38 C11.15435547 36.84951172 11.15435547 36.84951172 12.33203125 35.67578125 C14.1368141 33.86571353 15.92160668 32.03552789 17.6875 30.1875 C20 28 20 28 22 28 C18.65082179 24.08074891 15.30367298 20.23902826 11.5625 16.6875 C7.0992553 12.30540521 3.36206203 7.26577507 0 2 C0 1.34 0 0.68 0 0 Z " transform="translate(412,703)" style="fill: #08A178;"/><path d="M0 0 C4.55240544 2.23481722 6.74347252 4.51878389 9 9 C9.60288748 13.12914177 9.46380846 17.26880515 9.4375 21.4375 C9.4674707 23.11682617 9.4674707 23.11682617 9.49804688 24.83007812 C9.49427767 31.18118023 9.32661284 35.20781472 5 40 C1.18647001 43.3648794 -2.64845603 43.57163923 -7.55859375 43.41796875 C-11.65677189 42.71636065 -13.2477821 41.09624514 -16 38 C-18.7467476 32.36774424 -18.44332067 26.77470754 -18.5 20.625 C-18.54125 19.51382813 -18.5825 18.40265625 -18.625 17.2578125 C-18.67647983 11.85243019 -18.66510541 8.02908546 -15.09375 3.7734375 C-10.58861069 -0.68917461 -6.13397994 -0.67841253 0 0 Z " transform="translate(521,184)" style="fill: #193136;"/><path d="M0 0 C1.2694043 -0.02416992 1.2694043 -0.02416992 2.56445312 -0.04882812 C7.40579833 -0.05261931 10.62673191 0.18947178 14.5625 3.3125 C18.31270496 7.06270496 19.46929992 10.00009523 19.5625 15.3125 C17.99095475 19.53085829 16.00221407 22.42755405 12.5625 25.3125 C10.07641602 25.83007812 10.07641602 25.83007812 7.31640625 25.84375 C6.31416016 25.84890625 5.31191406 25.8540625 4.27929688 25.859375 C3.23837891 25.84390625 2.19746094 25.8284375 1.125 25.8125 C-0.43057617 25.83570313 -0.43057617 25.83570313 -2.01757812 25.859375 C-6.5387802 25.83614467 -9.56667415 25.81325231 -13.53515625 23.53125 C-17.18651703 19.2725787 -17.88513585 16.08678296 -17.7578125 10.56640625 C-17.25743238 7.04543884 -15.75070111 4.94697905 -13.4375 2.3125 C-9.08602316 -0.3470835 -4.96002748 -0.01880223 0 0 Z " transform="translate(381.4375,274.6875)" style="fill: #153136;"/><path d="M0 0 C0.79019531 -0.01611328 1.58039062 -0.03222656 2.39453125 -0.04882812 C7.38248799 -0.05297784 10.81193341 0.54821641 15.125 3.3125 C17.95157232 6.58537321 19.03379625 8.5698409 19.5625 12.875 C18.95882373 17.61817072 17.37937176 19.94640282 14.1953125 23.4140625 C9.6290748 26.23746138 5.45679883 26.01039309 0.1875 26 C-0.78896484 26.04060547 -1.76542969 26.08121094 -2.77148438 26.12304688 C-9.67461635 26.1558075 -9.67461635 26.1558075 -12.88085938 23.90332031 C-16.07804979 20.44254183 -17.68057744 17.50752862 -17.5 12.6875 C-17.29237761 9.08376845 -16.9469806 7.43846606 -15.125 4.25 C-10.24184198 0.04505838 -6.2434691 -0.02521595 0 0 Z " transform="translate(650.875,274.6875)" style="fill: #162F35;"/><path d="M0 0 C3.30887626 3.19436142 6.28973104 6.50297854 9.19824219 10.06298828 C14.50794356 16.5234151 19.6897491 21.76906712 27 26 C27.6290625 26.39445312 28.258125 26.78890625 28.90625 27.1953125 C35.09413064 30.73498999 42.07970311 31.66947648 49 33 C50.79325406 33.38857861 52.58523029 33.78317604 54.375 34.1875 C55.57125 34.455625 56.7675 34.72375 58 35 C58 37.97 58 40.94 58 44 C42.83831521 45.0744501 29.89527529 38.90665883 18.3125 29.375 C10.44338016 22.00573351 4.02520487 11.97198996 0 2 C0 1.34 0 0.68 0 0 Z " transform="translate(443,278)" style="fill: #0FA577;"/><path d="M0 0 C0.495 0.99 0.495 0.99 1 2 C-2.73412389 10.98278755 -8.09556156 18.18902266 -15 25 C-15.71027344 25.72058594 -16.42054688 26.44117188 -17.15234375 27.18359375 C-26.69950819 36.31641471 -37.93039557 41.05799947 -51.0625 41.125 C-52.691875 41.08375 -54.32125 41.0425 -56 41 C-56 37.7 -56 34.4 -56 31 C-54.81664062 30.89042969 -53.63328125 30.78085937 -52.4140625 30.66796875 C-32.71485923 28.74706179 -19.3736715 23.25350484 -6 8 C-3.90652009 5.39400841 -1.90727142 2.74497494 0 0 Z " transform="translate(588,281)" style="fill: #0EA684;"/><path d="M0 0 C-0.53125 1.84375 -0.53125 1.84375 -2 4 C-4.53755579 5.01976541 -6.87722549 5.79710838 -9.5 6.5 C-10.96435075 6.9256115 -12.42789895 7.35399413 -13.890625 7.78515625 C-14.60025391 7.99156738 -15.30988281 8.19797852 -16.04101562 8.41064453 C-20.15610102 9.64865751 -24.07838394 11.25424834 -28 13 C-29.44632813 13.62648438 -29.44632813 13.62648438 -30.921875 14.265625 C-37.65858333 17.3775055 -42.73967248 21.04569825 -48.0390625 26.2421875 C-50 28 -50 28 -52 28 C-52.3403125 28.804375 -52.3403125 28.804375 -52.6875 29.625 C-54 32 -54 32 -56.3515625 34.703125 C-59.0767247 37.93071895 -60.89170332 41.32069268 -62.6875 45.125 C-62.98205078 45.73214844 -63.27660156 46.33929688 -63.58007812 46.96484375 C-64.39235564 48.64050838 -65.19648842 50.32011433 -66 52 C-66.66323025 53.33504601 -67.32804237 54.66932529 -68 56 C-68.55522101 41.85081936 -61.03977209 29.9097059 -51.9453125 19.69140625 C-41.40154719 9.48583719 -14.57669772 -5.25189844 0 0 Z " transform="translate(600,252)" style="fill: #E7F6F3;"/><path d="M0 0 C0.33 0.66 0.66 1.32 1 2 C-0.109375 4.53125 -0.109375 4.53125 -1.75 7.5 C-2.28109375 8.4796875 -2.8121875 9.459375 -3.359375 10.46875 C-5 13 -5 13 -8 15 C-8.3063628 18.16796653 -8.41536474 21.14224073 -8.39872742 24.31387329 C-8.40537424 25.29155115 -8.41202107 26.26922902 -8.41886932 27.27653348 C-8.4376157 30.57329422 -8.43488621 33.86969574 -8.43237305 37.16650391 C-8.4413831 39.52145404 -8.45170843 41.87639945 -8.46325684 44.2313385 C-8.49094182 50.64218487 -8.50012693 57.05294254 -8.50611091 63.46384096 C-8.51309779 69.47950636 -8.53664018 75.49512225 -8.55872939 81.51074712 C-8.60204056 93.42804569 -8.63198253 105.34533904 -8.65356445 117.26269531 C-8.6745612 128.84117199 -8.70182485 140.41960586 -8.73754883 151.99804688 C-8.73974765 152.71141337 -8.74194648 153.42477987 -8.74421193 154.15976353 C-8.75528126 157.73841562 -8.76647413 161.3170673 -8.77772844 164.89571881 C-8.8709748 194.59710629 -8.94232237 224.29852165 -9 254 C-9.33 254 -9.66 254 -10 254 C-10.18266534 223.61278023 -10.32416189 193.2256174 -10.40852264 162.83797375 C-10.41852779 159.24704345 -10.42888241 155.65611423 -10.43945312 152.06518555 C-10.44260085 150.99289235 -10.44260085 150.99289235 -10.44581217 149.89893667 C-10.48058322 138.33758242 -10.54363754 126.77654776 -10.61722237 115.21538284 C-10.69214555 103.3445694 -10.73649352 91.47392285 -10.75270796 79.60288268 C-10.76268151 72.93834713 -10.78758349 66.27439326 -10.84584045 59.61005211 C-10.90026338 53.33327626 -10.91686756 47.05752031 -10.90486145 40.78053093 C-10.90705688 38.48075055 -10.92289816 36.180935 -10.9536438 33.8813591 C-11.22089664 12.85589653 -11.22089664 12.85589653 -3.91338348 4.88078022 C-3.28196693 4.26012275 -2.65055038 3.63946527 -2 3 C-1.34 2.01 -0.68 1.02 0 0 Z " transform="translate(542,487)" style="fill: #5CC595;"/><path d="M0 0 C0.33 0.66 0.66 1.32 1 2 C-3.95356428 13.91626652 -12.03936114 22.94671751 -22 31 C-23 28 -23 28 -23 26 C-24.65 26.33 -26.3 26.66 -28 27 C-25.53361466 24.33695935 -22.78727235 22.38099473 -19.8125 20.3125 C-11.830752 14.55258423 -5.64478627 8.03954409 0 0 Z " transform="translate(588,281)" style="fill: #0CA57B;"/><path d="M0 0 C16.83221287 0.81446191 32.07482931 6.71655287 46 16 C45.67 16.66 45.34 17.32 45 18 C43.96166016 17.43732422 43.96166016 17.43732422 42.90234375 16.86328125 C29.3871402 9.79406411 15.94538081 6.25003897 1 4 C0.67 2.68 0.34 1.36 0 0 Z " transform="translate(434,252)" style="fill: #EAF6F4;"/><path d="M0 0 C1 2 1 2 0 5 C1.65 4.67 3.3 4.34 5 4 C4.67 4.66 4.34 5.32 4 6 C3.34 6 2.68 6 2 6 C1.773125 6.53625 1.54625 7.0725 1.3125 7.625 C0 10 0 10 -2.3515625 12.703125 C-5.0767247 15.93071895 -6.89170332 19.32069268 -8.6875 23.125 C-8.98205078 23.73214844 -9.27660156 24.33929688 -9.58007812 24.96484375 C-10.39235564 26.64050838 -11.19648842 28.32011433 -12 30 C-12.66323025 31.33504601 -13.32804237 32.66932529 -14 34 C-14.52702726 20.56930524 -7.81341524 10.24766008 0 0 Z " transform="translate(546,274)" style="fill: #DDF4F1;"/><path d="M0 0 C0.33 0 0.66 0 1 0 C1 7.92 1 15.84 1 24 C1.66 24 2.32 24 3 24 C3.02578125 24.69222656 3.0515625 25.38445313 3.078125 26.09765625 C3.51078454 33.56103325 4.98059411 40.39738727 7.0234375 47.5546875 C7.80816901 50.32322027 8.46776871 53.0626266 9.0625 55.875 C9.371875 56.90625 9.68125 57.9375 10 59 C10.99 59.33 11.98 59.66 13 60 C13 61.98 13 63.96 13 66 C12.34 66 11.68 66 11 66 C3.92652277 48.2691504 -0.19969478 31.70726924 -0.0625 12.5 C-0.05798828 11.29601562 -0.05347656 10.09203125 -0.04882812 8.8515625 C-0.0371195 5.90098927 -0.02071995 2.95052141 0 0 Z " transform="translate(390,620)" style="fill: #70CEA3;"/><path d="M0 0 C0.66 0.33 1.32 0.66 2 1 C0.92492371 2.29854721 -0.16043736 3.58858361 -1.25 4.875 C-1.85328125 5.59429687 -2.4565625 6.31359375 -3.078125 7.0546875 C-4.98704382 8.98688581 -6.5818807 9.84439351 -9 11 C-10.02611949 12.65071396 -11.02308143 14.31970006 -12 16 C-14.25 18.4375 -14.25 18.4375 -17 21 C-17.57363281 21.55558594 -18.14726562 22.11117188 -18.73828125 22.68359375 C-19.34027344 23.24175781 -19.94226563 23.79992187 -20.5625 24.375 C-21.12066406 24.89835937 -21.67882812 25.42171875 -22.25390625 25.9609375 C-24 27 -24 27 -26.21484375 26.6640625 C-26.80394531 26.44492187 -27.39304687 26.22578125 -28 26 C-22.84715556 20.7521236 -17.68109081 15.59056549 -12.09375 10.8046875 C-7.99896925 7.27523095 -4.01067313 3.62439928 0 0 Z " transform="translate(469,441)" style="fill: #B0DFE5;"/><path d="M0 0 C2 1.375 2 1.375 4 3 C4 3.66 4 4.32 4 5 C4.66 5 5.32 5 6 5 C6 5.66 6 6.32 6 7 C6.66 7 7.32 7 8 7 C9.10812188 8.10812188 10.21129839 9.22151221 11.29296875 10.35546875 C14.93458286 13.86375145 19.02119641 16.88648962 23 20 C22.34 20.66 21.68 21.32 21 22 C20.67 22.99 20.34 23.98 20 25 C12.56266218 17.89734238 5.39161748 10.84859575 0 2 C0 1.34 0 0.68 0 0 Z " transform="translate(412,703)" style="fill: #17A277;"/><path d="M0 0 C3.97711975 3.88841076 7.71580774 7.9367679 11.375 12.125 C11.93316406 12.74503906 12.49132812 13.36507813 13.06640625 14.00390625 C14.45851485 15.60225316 15.73966133 17.29582113 17 19 C16.67 19.99 16.34 20.98 16 22 C15.01 22.33 14.02 22.66 13 23 C0 7.76923077 0 7.76923077 0 0 Z " transform="translate(443,278)" style="fill: #139B6F;"/><path d="M0 0 C0.33 1.32 0.66 2.64 1 4 C0.01 4 -0.98 4 -2 4 C-2.12375 4.721875 -2.2475 5.44375 -2.375 6.1875 C-3.52688914 11.37100114 -5.32296094 15.10666452 -9 19 C-11.1875 19.6875 -11.1875 19.6875 -13 20 C-13.33 20.66 -13.66 21.32 -14 22 C-14.66 22 -15.32 22 -16 22 C-14.58050389 17.80223879 -12.536141 14.93778052 -9.6875 11.5625 C-8.48867188 10.13164062 -8.48867188 10.13164062 -7.265625 8.671875 C-6.51796875 7.79015625 -5.7703125 6.9084375 -5 6 C-3.97803856 4.77177111 -2.95692226 3.54283721 -1.9375 2.3125 C-1.298125 1.549375 -0.65875 0.78625 0 0 Z " transform="translate(440,468)" style="fill: #B0E7EB;"/><path d="M0 0 C0.33 0.99 0.66 1.98 1 3 C0.01 4.485 0.01 4.485 -1 6 C-1.66 6 -2.32 6 -3 6 C-3.226875 6.721875 -3.45375 7.44375 -3.6875 8.1875 C-5.27331875 11.58568303 -7.26123324 13.45230999 -10 16 C-10.886875 16.928125 -11.77375 17.85625 -12.6875 18.8125 C-15 21 -15 21 -17 21 C-17.33 21.99 -17.66 22.98 -18 24 C-19.63264644 25.45961383 -21.32912023 26.84906752 -23.0625 28.1875 C-23.98160156 28.90292969 -24.90070312 29.61835937 -25.84765625 30.35546875 C-26.55792969 30.89816406 -27.26820313 31.44085937 -28 32 C-28.66 31.67 -29.32 31.34 -30 31 C-28.38050958 29.49405319 -26.75424026 27.99539332 -25.125 26.5 C-24.22007812 25.6646875 -23.31515625 24.829375 -22.3828125 23.96875 C-20 22 -20 22 -18 22 C-18 21.34 -18 20.68 -18 20 C-16.125 17.875 -16.125 17.875 -14 16 C-13.34 16 -12.68 16 -12 16 C-11.77570312 15.46890625 -11.55140625 14.9378125 -11.3203125 14.390625 C-9.55204584 11.1889114 -7.23950919 8.51852896 -4.875 5.75 C-4.40707031 5.19570313 -3.93914063 4.64140625 -3.45703125 4.0703125 C-2.30824672 2.71052674 -1.15460347 1.35484835 0 0 Z " transform="translate(636,713)" style="fill: #024439;"/><path d="M0 0 C3.01090055 8.74398514 -3.42081879 20.13244998 -7 28 C-7.36480469 28.81210937 -7.72960937 29.62421875 -8.10546875 30.4609375 C-9.7508653 33.95346505 -10.72805106 35.81870071 -14 38 C-12.55538467 33.37438442 -10.69968395 29.02355011 -8.6875 24.625 C-5.08776925 16.61089742 -2.43305693 8.43160743 0 0 Z " transform="translate(659,662)" style="fill: #04453C;"/><path d="M0 0 C0.66 0 1.32 0 2 0 C0.62194197 4.48717418 -1.16715249 8.51572669 -3.3125 12.6875 C-6.01877776 17.99186097 -8.56128431 23.33916941 -10.95703125 28.79296875 C-12 31 -12 31 -14 34 C-13.43841512 28.69918661 -12.17007194 24.28317265 -10.125 19.375 C-9.74021484 18.41207031 -9.74021484 18.41207031 -9.34765625 17.4296875 C-7.84944843 13.75569044 -6.28237328 10.25518813 -4 7 C-3.34 7 -2.68 7 -2 7 C-1.855625 6.21625 -1.71125 5.4325 -1.5625 4.625 C-1 2 -1 2 0 0 Z " transform="translate(400,521)" style="fill: #114B50;"/><path d="M0 0 C0.33 0 0.66 0 1 0 C1.03758423 1.04957886 1.03758423 1.04957886 1.07592773 2.12036133 C1.19337867 5.35119418 1.31541636 8.58183902 1.4375 11.8125 C1.47681641 12.91271484 1.51613281 14.01292969 1.55664062 15.14648438 C1.75977317 20.44355621 2.05220401 25.6700938 2.65625 30.9375 C3.06958416 35.18160434 2.7698403 38.20370598 1.0625 42.1875 C0.68222656 43.10917969 0.30195312 44.03085937 -0.08984375 44.98046875 C-0.39019531 45.64691406 -0.69054687 46.31335938 -1 47 C-2.25356474 43.23930578 -1.59057612 40.91612634 -1 37 C-0.81158598 34.07594848 -0.74690629 31.1518005 -0.68359375 28.22265625 C-0.66281265 27.41130722 -0.64203156 26.59995819 -0.62062073 25.76402283 C-0.55574357 23.19692661 -0.49653078 20.62973663 -0.4375 18.0625 C-0.39425582 16.31183964 -0.35063974 14.56118842 -0.30664062 12.81054688 C-0.2001265 8.54045829 -0.09868886 4.27027632 0 0 Z " transform="translate(549,429)" style="fill: #5DBF95;"/><path d="M0 0 C10.39887738 0.19586927 19.28064407 2.61881199 29 6 C24.98667422 7.55154347 21.30423515 6.48407585 17.25 5.625 C11.84165188 4.51454069 6.48784727 3.62753411 1 3 C0.67 2.01 0.34 1.02 0 0 Z " transform="translate(435,256)" style="fill: #71C9A1;"/><path d="M0 0 C1.31246762 3.67314762 0.67633026 6.22118533 -0.3125 9.9375 C-0.70888672 11.46697266 -0.70888672 11.46697266 -1.11328125 13.02734375 C-1.93057879 15.76727073 -2.88964872 18.36715831 -4 21 C-4.66 21 -5.32 21 -6 21 C-6 22.98 -6 24.96 -6 27 C-6.66 27 -7.32 27 -8 27 C-7.61757272 20.49873622 -5.69549816 15.16860144 -3.25390625 9.1484375 C-2.05132946 6.12888332 -0.99827008 3.09231567 0 0 Z " transform="translate(386,555)" style="fill: #C6F5F3;"/><path d="M0 0 C0.33 0 0.66 0 1 0 C1.61669998 6.90703976 0.11242982 10.47759424 -4 16 C-4.66 15.01 -5.32 14.02 -6 13 C-6 13.99 -6 14.98 -6 16 C-6.66 16 -7.32 16 -8 16 C-6.57250019 12.20950293 -4.83763458 8.72877544 -2.875 5.1875 C-2.33617187 4.21167969 -1.79734375 3.23585938 -1.2421875 2.23046875 C-0.83226562 1.49441406 -0.42234375 0.75835938 0 0 Z " transform="translate(404,518)" style="fill: #BAEAEB;"/><path d="M0 0 C0.33 0.66 0.66 1.32 1 2 C0.113125 2.556875 -0.77375 3.11375 -1.6875 3.6875 C-4.8473357 5.78414393 -7.35246281 8.28279078 -10 11 C-13.0996978 13.69973679 -16.06588932 14.83764912 -20 16 C-16.3498353 12.1923235 -12.51564577 8.92972976 -8.3125 5.75 C-7.73177734 5.30398438 -7.15105469 4.85796875 -6.55273438 4.3984375 C-2.2864011 1.14320055 -2.2864011 1.14320055 0 0 Z " transform="translate(491,425)" style="fill: #CDE7E8;"/><path d="M0 0 C7.21330414 1.94954166 13.81629324 5.87752882 20 10 C19.67 10.66 19.34 11.32 19 12 C18.2265625 11.60167969 17.453125 11.20335937 16.65625 10.79296875 C10.85515952 7.84216654 5.15153783 5.12937848 -1 3 C-0.67 2.01 -0.34 1.02 0 0 Z " transform="translate(460,258)" style="fill: #C4E9DD;"/><path d="M0 0 C2.12534659 0.14069196 4.25027529 0.28770921 6.375 0.4375 C8.15003906 0.55931641 8.15003906 0.55931641 9.9609375 0.68359375 C13 1 13 1 15 2 C16.41298094 2.1780356 17.83076636 2.31923053 19.25 2.4375 C23.0655883 2.81967524 26.40287756 3.61649137 30 5 C30 5.33 30 5.66 30 6 C23.4219574 6.37322228 17.45203736 4.96749151 11.0625 3.5 C9.99708984 3.26152344 8.93167969 3.02304687 7.83398438 2.77734375 C5.22109187 2.19149341 2.60992993 1.59888542 0 1 C0 0.67 0 0.34 0 0 Z " transform="translate(470,766)" style="fill: #138B6D;"/><path d="M0 0 C0.33 1.32 0.66 2.64 1 4 C0.34 4 -0.32 4 -1 4 C-1.04125 4.86625 -1.0825 5.7325 -1.125 6.625 C-2.21112492 10.81433898 -4.24028708 13.73712829 -8 16 C-10.19921875 15.66015625 -10.19921875 15.66015625 -12 15 C-11.32904297 14.38125 -11.32904297 14.38125 -10.64453125 13.75 C-6.25326061 9.55535342 -2.97928993 5.28583698 0 0 Z " transform="translate(584,291)" style="fill: #07413B;"/><path d="M0 0 C1.77499119 5.20256038 0.05096789 10.08349542 -2 15 C-3.87101717 17.22242649 -5.52827842 18.40711276 -8 20 C-5.83836487 13.06001352 -3.1063786 6.56882431 0 0 Z " transform="translate(395,534)" style="fill: #A5E6E6;"/><path d="M0 0 C2 1.375 2 1.375 4 3 C4 3.66 4 4.32 4 5 C4.66 5 5.32 5 6 5 C6 5.66 6 6.32 6 7 C6.66 7 7.32 7 8 7 C10.92092737 9.30133672 11.90305826 10.57991912 12.75 14.25 C12.87375 15.61125 12.87375 15.61125 13 17 C9.1691812 14.16881693 6.45626044 11.24396468 3.6875 7.375 C2.64142578 5.93253906 2.64142578 5.93253906 1.57421875 4.4609375 C0 2 0 2 0 0 Z " transform="translate(412,703)" style="fill: #31A97D;"/><path d="M0 0 C0.33 0.66 0.66 1.32 1 2 C-0.29296875 4.8984375 -0.29296875 4.8984375 -2.1875 8.375 C-2.79980469 9.51710938 -3.41210938 10.65921875 -4.04296875 11.8359375 C-5.8083554 14.69015544 -7.51955775 16.76705199 -10 19 C-10.25 16.6875 -10.25 16.6875 -10 14 C-8.68212715 12.97971135 -7.34789347 11.98028616 -6 11 C-5.855625 10.236875 -5.71125 9.47375 -5.5625 8.6875 C-4.74902614 4.80090268 -2.64974158 2.92150995 0 0 Z " transform="translate(588,281)" style="fill: #179D7B;"/><path d="M0 0 C1.41171721 2.82343443 0.36043422 4.54508558 -0.59179688 7.41015625 C-0.82962891 8.09980469 -1.06746094 8.78945313 -1.3125 9.5 C-1.53873047 10.18964844 -1.76496094 10.87929688 -1.99804688 11.58984375 C-3.73979427 16.73979427 -3.73979427 16.73979427 -6 19 C-7.24153433 15.275397 -6.47452539 14.52247731 -5 11 C-4.62406934 9.0075675 -4.28020455 7.0081326 -4 5 C-3.01 5 -2.02 5 -1 5 C-0.67 3.35 -0.34 1.7 0 0 Z " transform="translate(385,555)" style="fill: #1E6263;"/><path d="M0 0 C0.66 0.33 1.32 0.66 2 1 C2.17819397 4.92026737 2.28871935 7.73040093 0 11 C-2.625 13.25 -2.625 13.25 -5 15 C-4.01 11.04 -3.02 7.08 -2 3 C-1.34 3 -0.68 3 0 3 C0 2.01 0 1.02 0 0 Z " transform="translate(398,531)" style="fill: #E1FEFC;"/><path d="M0 0 C0.66 0.33 1.32 0.66 2 1 C1.41980487 4.36513174 0.36548527 5.63451473 -2 8 C-2.71447643 10.10332891 -2.71447643 10.10332891 -3 12 C-4.65 12.33 -6.3 12.66 -8 13 C-5.76537994 8.20983041 -3.51098025 4.01254885 0 0 Z " transform="translate(434,507)" style="fill: #3ADC9B;"/><path d="M0 0 C0 4.13781054 -1.71509607 5.20919996 -4.5 8.1875 C-5.3353125 9.08855469 -6.170625 9.98960937 -7.03125 10.91796875 C-7.6809375 11.60503906 -8.330625 12.29210937 -9 13 C-9 10.37886292 -8.68707555 8.49064888 -8 6 C-7.01 6 -6.02 6 -5 6 C-5 4.68 -5 3.36 -5 2 C-3.35 1.34 -1.7 0.68 0 0 Z " transform="translate(446,466)" style="fill: #DAFBFD;"/><path d="M0 0 C1.24546405 2.49092811 0.7767578 3.41080733 0 6 C-0.66 6 -1.32 6 -2 6 C-2.33 7.98 -2.66 9.96 -3 12 C-4.32 12.33 -5.64 12.66 -7 13 C-5.35821735 8.22390502 -2.73453298 4.20617096 0 0 Z " transform="translate(412,505)" style="fill: #B1E4E3;"/><path d="M0 0 C4 2 4 2 6 5 C3.525 4.01 3.525 4.01 1 3 C1 9.6 1 16.2 1 23 C0.67 23 0.34 23 0 23 C0 15.41 0 7.82 0 0 Z " transform="translate(550,431)" style="fill: #129975;"/><path d="M0 0 C0.99 0.33 1.98 0.66 3 1 C2.34 1.66 1.68 2.32 1 3 C0.896875 3.66 0.79375 4.32 0.6875 5 C0.460625 5.66 0.23375 6.32 0 7 C-2.5625 8.25 -2.5625 8.25 -5 9 C-3.375 2.25 -3.375 2.25 0 0 Z " transform="translate(425,525)" style="fill: #2ED98F;"/><path d="M0 0 C1.32 0.33 2.64 0.66 4 1 C-0.455 6.94 -0.455 6.94 -5 13 C-5.33 12.01 -5.66 11.02 -6 10 C-4.78515625 8.02734375 -4.78515625 8.02734375 -3.0625 5.9375 C-0.65227465 3.29751005 -0.65227465 3.29751005 0 0 Z " transform="translate(424,483)" style="fill: #134B4F;"/><path d="M0 0 C0.99 0.33 1.98 0.66 3 1 C0.03 4.63 -2.94 8.26 -6 12 C-6.66 11.01 -7.32 10.02 -8 9 C-7.01 8.67 -6.02 8.34 -5 8 C-4.855625 7.401875 -4.71125 6.80375 -4.5625 6.1875 C-3.81048512 3.2629977 -2.20287489 1.98969345 0 0 Z " transform="translate(437,468)" style="fill: #0E444A;"/><path d="M0 0 C0.33 0 0.66 0 1 0 C1.08226668 3.04386724 0.97608217 5.07175348 0 8 C0 9.32 0 10.64 0 12 C-2 13.75 -2 13.75 -4 15 C-3.50341703 9.33895411 -2.45489316 5.12325529 0 0 Z " transform="translate(536,297)" style="fill: #64C69B;"/><path d="M0 0 C0.66 0.33 1.32 0.66 2 1 C1.04482045 3.10560019 0.08574515 5.20943346 -0.875 7.3125 C-1.40867187 8.48425781 -1.94234375 9.65601563 -2.4921875 10.86328125 C-4 14 -4 14 -6 17 C-5.43179252 11.54520815 -4.05362055 7.08940744 -2 2 C-1.34 2 -0.68 2 0 2 C0 1.34 0 0.68 0 0 Z " transform="translate(392,538)" style="fill: #1B6165;"/><path d="M0 0 C0.66 0.99 1.32 1.98 2 3 C0.35 5.31 -1.3 7.62 -3 10 C-4.32 9.67 -5.64 9.34 -7 9 C-4.69 6.03 -2.38 3.06 0 0 Z " transform="translate(447,489)" style="fill: #43DBA4;"/><path d="M0 0 C0.99 0.33 1.98 0.66 3 1 C1.90220176 2.15193623 0.79650554 3.29634937 -0.3125 4.4375 C-0.92738281 5.07558594 -1.54226563 5.71367187 -2.17578125 6.37109375 C-4 8 -4 8 -7 9 C-6.67 7.02 -6.34 5.04 -6 3 C-4.35 3 -2.7 3 -1 3 C-0.67 2.01 -0.34 1.02 0 0 Z " transform="translate(572,303)" style="fill: #149D7E;"/><path d="M0 0 C0 3.16785869 -0.55555175 4.28103859 -2 7 C-2.33 7.99 -2.66 8.98 -3 10 C-5.0625 10.6875 -5.0625 10.6875 -7 11 C-7 7.22089522 -6.00296038 6.53893899 -3.5 3.8125 C-2.8503125 3.09707031 -2.200625 2.38164063 -1.53125 1.64453125 C-1.0259375 1.10183594 -0.520625 0.55914063 0 0 Z " transform="translate(650,745)" style="fill: #C5D9DD;"/><path d="M0 0 C0.66 0.33 1.32 0.66 2 1 C0.49776416 5.20626034 -2.28550034 6.73900021 -6 9 C-6.33 8.01 -6.66 7.02 -7 6 C-6.01 5.67 -5.02 5.34 -4 5 C-3.67 4.01 -3.34 3.02 -3 2 C-2.01 1.34 -1.02 0.68 0 0 Z " transform="translate(611,736)" style="fill: #0D9B75;"/><path d="M0 0 C0.66 0 1.32 0 2 0 C1.01 4.29 0.02 8.58 -1 13 C-1.99 12.67 -2.98 12.34 -4 12 C-3.52309796 10.37433394 -3.04340334 8.74948689 -2.5625 7.125 C-2.29566406 6.22007812 -2.02882813 5.31515625 -1.75390625 4.3828125 C-1 2 -1 2 0 0 Z " transform="translate(377,576)" style="fill: #1D5658;"/><path d="M0 0 C-2.31 2.64 -4.62 5.28 -7 8 C-8 5 -8 5 -6.75 2.375 C-4.67796457 -0.43704808 -3.33997622 -1.66998811 0 0 Z " transform="translate(467,468)" style="fill: #D2FEF4;"/><path d="M0 0 C1 2 1 2 0 5 C1.65 4.67 3.3 4.34 5 4 C4.67 4.66 4.34 5.32 4 6 C3.34 6 2.68 6 2 6 C1.67 6.99 1.34 7.98 1 9 C0.54625 8.525625 0.0925 8.05125 -0.375 7.5625 C-1.93258204 5.90972192 -1.93258204 5.90972192 -4 5 C-2.68 3.35 -1.36 1.7 0 0 Z " transform="translate(546,274)" style="fill: #CEE9E5;"/><path d="M0 0 C2.38681675 2.38681675 3.94223816 4.2585508 5.6875 7.0625 C6.12449219 7.75472656 6.56148437 8.44695313 7.01171875 9.16015625 C8 11 8 11 8 13 C7.01 12.67 6.02 12.34 5 12 C5 11.01 5 10.02 5 9 C4.34 9 3.68 9 3 9 C2.01 6.03 1.02 3.06 0 0 Z " transform="translate(626,515)" style="fill: #148C6F;"/><path d="M0 0 C1 2 1 2 0.0625 5.125 C-0.288125 6.07375 -0.63875 7.0225 -1 8 C-2.65 8.33 -4.3 8.66 -6 9 C-2.25 2.25 -2.25 2.25 0 0 Z " transform="translate(423,490)" style="fill: #B4E2E4;"/><path d="M0 0 C0 4.24645065 -1.81750806 6.38524772 -4 10 C-4.99 10 -5.98 10 -7 10 C-5.33248852 6.05860922 -2.77289351 3.2107188 0 0 Z " transform="translate(408,459)" style="fill: #1B3538;"/><path d="M0 0 C0.66 0.66 1.32 1.32 2 2 C1.53128597 6.1012478 0.16243456 10.04772249 -1 14 C-1.33 14 -1.66 14 -2 14 C-2.21192221 8.80790596 -1.5912689 4.873261 0 0 Z " transform="translate(534,294)" style="fill: #C3E4DF;"/><path d="M0 0 C0.33 0 0.66 0 1 0 C1 2.31 1 4.62 1 7 C0.34 7 -0.32 7 -1 7 C-1 8.98 -1 10.96 -1 13 C-1.66 13 -2.32 13 -3 13 C-2.52060632 8.28596212 -2.03165952 4.33420699 0 0 Z " transform="translate(381,569)" style="fill: #AFE7E3;"/><path d="M0 0 C0.66 0.33 1.32 0.66 2 1 C0.02 4.3 -1.96 7.6 -4 11 C-5 7 -5 7 -4.00390625 5.078125 C-3.52824219 4.47484375 -3.05257813 3.8715625 -2.5625 3.25 C-2.08941406 2.63640625 -1.61632812 2.0228125 -1.12890625 1.390625 C-0.75636719 0.93171875 -0.38382812 0.4728125 0 0 Z " transform="translate(407,510)" style="fill: #194F54;"/><path d="M0 0 C0.99 0.33 1.98 0.66 3 1 C2.02501855 2.5027237 1.04490611 4.00211963 0.0625 5.5 C-0.48277344 6.3353125 -1.02804687 7.170625 -1.58984375 8.03125 C-2.05519531 8.6809375 -2.52054687 9.330625 -3 10 C-3.33 10 -3.66 10 -4 10 C-3.67 7.69 -3.34 5.38 -3 3 C-2.01 3 -1.02 3 0 3 C0 2.01 0 1.02 0 0 Z " transform="translate(431,507)" style="fill: #CDFDF2;"/><path d="M0 0 C4.29238623 1.65091778 6.8793915 4.73754566 10 8 C9.67 8.99 9.34 9.98 9 11 C7.49703315 9.35687553 5.99769719 7.71042916 4.5 6.0625 C3.6646875 5.14597656 2.829375 4.22945313 1.96875 3.28515625 C0 1 0 1 0 0 Z " transform="translate(579,455)" style="fill: #023F34;"/><path d="M0 0 C2.31 0.33 4.62 0.66 7 1 C6.67 1.99 6.34 2.98 6 4 C4.35 4 2.7 4 1 4 C0.67 2.68 0.34 1.36 0 0 Z " transform="translate(434,252)" style="fill: #F0FAF8;"/><path d="M0 0 C0.99 0.33 1.98 0.66 3 1 C0.22719294 4.08089673 -2.06326356 5.68775452 -6 7 C-4.02 4.69 -2.04 2.38 0 0 Z " transform="translate(458,477)" style="fill: #48D79E;"/><path d="M0 0 C0.66 0.33 1.32 0.66 2 1 C-2.30769231 6.78461538 -2.30769231 6.78461538 -5.8125 7.875 C-6.8953125 7.936875 -6.8953125 7.936875 -8 8 C-5.58443874 4.80800833 -3.31996462 2.25283313 0 0 Z " transform="translate(555,266)" style="fill: #C8DEE1;"/><path d="M0 0 C0.625 1.8125 0.625 1.8125 1 4 C-1 7 -1 7 -3.125 7.6875 C-3.74375 7.790625 -4.3625 7.89375 -5 8 C-3.62845496 5.04590299 -2.01136276 2.55991624 0 0 Z " transform="translate(433,476)" style="fill: #8ED2D8;"/><path d="M0 0 C0 3.99904969 -1.72586967 5.80200422 -4 9 C-4.99 8.67 -5.98 8.34 -7 8 C-4.69 5.36 -2.38 2.72 0 0 Z " transform="translate(423,442)" style="fill: #223C40;"/><path d="M0 0 C1.98 0.66 3.96 1.32 6 2 C6 3.65 6 5.3 6 7 C3.95880212 5.38405168 1.95927063 3.7143618 0 2 C0 1.34 0 0.68 0 0 Z " transform="translate(427,721)" style="fill: #28A07E;"/><path d="M0 0 C1.98 0.495 1.98 0.495 4 1 C2.625 3.5 2.625 3.5 1 6 C0.34 6 -0.32 6 -1 6 C-0.67 4.02 -0.34 2.04 0 0 Z " transform="translate(413,542)" style="fill: #3BD691;"/><path d="M0 0 C0.33 0.66 0.66 1.32 1 2 C0.22265625 3.9453125 0.22265625 3.9453125 -0.9375 6.125 C-1.31777344 6.84945313 -1.69804688 7.57390625 -2.08984375 8.3203125 C-2.39019531 8.87460937 -2.69054687 9.42890625 -3 10 C-3.66 8.68 -4.32 7.36 -5 6 C-3.35 4.02 -1.7 2.04 0 0 Z " transform="translate(588,281)" style="fill: #269F77;"/><path d="M0 0 C-1 3 -1 3 -3.3125 4.75 C-6.32190521 6.14972335 -6.98041673 5.95287489 -10 5 C-8.71186658 4.16121545 -7.41936744 3.32913217 -6.125 2.5 C-5.40570312 2.0359375 -4.68640625 1.571875 -3.9453125 1.09375 C-2 0 -2 0 0 0 Z " transform="translate(597,751)" style="fill: #02433A;"/><path d="M0 0 C0.99 0.33 1.98 0.66 3 1 C3 2.98 3 4.96 3 7 C2.34 7 1.68 7 1 7 C0.34 5.02 -0.32 3.04 -1 1 C-0.67 0.67 -0.34 0.34 0 0 Z " transform="translate(400,679)" style="fill: #5ECE9E;"/><path d="M0 0 C0.66 0.33 1.32 0.66 2 1 C1.5504955 2.31554985 1.09010284 3.62738358 0.625 4.9375 C0.36976563 5.66839844 0.11453125 6.39929688 -0.1484375 7.15234375 C-1 9 -1 9 -3 10 C-2.67 7.69 -2.34 5.38 -2 3 C-1.34 3 -0.68 3 0 3 C0 2.01 0 1.02 0 0 Z " transform="translate(398,531)" style="fill: #CCFEFD;"/><path d="M0 0 C0.99 0 1.98 0 3 0 C1.60667426 3.36720387 0.0210714 4.9859524 -3 7 C-3 5.68 -3 4.36 -3 3 C-2.01 3 -1.02 3 0 3 C0 2.01 0 1.02 0 0 Z " transform="translate(465,441)" style="fill: #1D484E;"/><path d="M0 0 C0 0.66 0 1.32 0 2 C-2.875 2.125 -2.875 2.125 -6 2 C-6.66 1.34 -7.32 0.68 -8 0 C-4.71023192 -1.09658936 -3.28696233 -0.79953138 0 0 Z " transform="translate(460,258)" style="fill: #DFF6ED;"/><path d="M0 0 C-0.33 0.99 -0.66 1.98 -1 3 C-1.99 3.33 -2.98 3.66 -4 4 C-4.33 4.66 -4.66 5.32 -5 6 C-6.32 5.67 -7.64 5.34 -9 5 C-7.87926138 4.16094435 -6.75325453 3.32892169 -5.625 2.5 C-4.99851562 2.0359375 -4.37203125 1.571875 -3.7265625 1.09375 C-2 0 -2 0 0 0 Z " transform="translate(606,745)" style="fill: #04423A;"/><path d="M0 0 C0.66 0.66 1.32 1.32 2 2 C0.68 4.31 -0.64 6.62 -2 9 C-3 6 -3 6 -1.5625 2.8125 C-1.046875 1.884375 -0.53125 0.95625 0 0 Z " transform="translate(368,518)" style="fill: #2D4A4B;"/><path d="M0 0 C-0.25 1.875 -0.25 1.875 -1 4 C-3.0625 5.25 -3.0625 5.25 -5 6 C-3.8 0 -3.8 0 0 0 Z " transform="translate(459,452)" style="fill: #C6F0F5;"/></svg>