<svg version="1.1" id="Layer_1" xmlns="http://www.w3.org/2000/svg" xmlns:xlink="http://www.w3.org/1999/xlink" x="0px" y="0px"
	 width="100%" viewBox="0 0 512 512" enable-background="new 0 0 512 512" xml:space="preserve">
<path fill="#000000" opacity="1.000000" stroke="none" 
	d="
M513.000000,170.000000 
	C513.000000,228.020889 513.000000,286.041779 512.658203,344.609863 
	C508.496857,351.710297 503.009338,354.155853 495.251831,354.135864 
	C410.943054,353.918579 326.633484,353.979919 242.324265,354.071045 
	C238.833893,354.074829 235.047424,354.447327 231.920486,355.828674 
	C226.434509,358.252289 225.022018,363.511444 225.015045,369.094055 
	C224.981567,395.919678 225.013321,422.745422 224.988297,449.571106 
	C224.983536,454.677277 223.482010,458.907562 218.942398,462.092377 
	C212.483948,466.623413 202.215210,465.871246 195.563416,459.194672 
	C132.766251,396.163422 69.801018,333.299652 6.898639,270.373230 
	C4.853706,268.327515 2.962738,266.127869 0.999998,264.000000 
	C1.000000,258.645081 1.000000,253.290146 1.372142,247.467560 
	C3.109396,246.224182 4.722570,245.700378 5.803398,244.636002 
	C33.528236,217.333008 61.243385,190.019806 88.861275,162.608688 
	C109.432205,142.191772 129.864212,121.634880 150.359039,101.141273 
	C166.024307,85.476929 181.674606,69.797569 197.367081,54.160542 
	C202.089371,49.454960 207.750610,47.378178 214.186935,49.790466 
	C222.049835,52.737431 224.999741,57.403248 224.999847,65.620308 
	C225.000214,91.938385 224.938416,118.256805 225.085938,144.574051 
	C225.102478,147.524582 225.792969,150.711777 227.057800,153.366699 
	C230.036911,159.619965 236.179459,159.946045 241.984650,159.951004 
	C325.769318,160.022598 409.554504,160.116531 493.338287,159.829575 
	C502.251068,159.799072 508.833618,161.972885 513.000000,170.000000 
z"/>
<path fill="#FFFFFF" opacity="1.000000" stroke="none" 
	d="
M513.000000,169.531342 
	C508.833618,161.972885 502.251068,159.799072 493.338287,159.829575 
	C409.554504,160.116531 325.769318,160.022598 241.984650,159.951004 
	C236.179459,159.946045 230.036911,159.619965 227.057800,153.366699 
	C225.792969,150.711777 225.102478,147.524582 225.085938,144.574051 
	C224.938416,118.256805 225.000214,91.938385 224.999847,65.620308 
	C224.999741,57.403248 222.049835,52.737431 214.186935,49.790466 
	C207.750610,47.378178 202.089371,49.454960 197.367081,54.160542 
	C181.674606,69.797569 166.024307,85.476929 150.359039,101.141273 
	C129.864212,121.634880 109.432205,142.191772 88.861275,162.608688 
	C61.243385,190.019806 33.528236,217.333008 5.803398,244.636002 
	C4.722570,245.700378 3.109396,246.224182 1.372142,246.999939 
	C1.000000,165.038696 1.000000,83.077400 1.000000,1.058050 
	C171.547409,1.058050 342.094849,1.058050 513.000000,1.058050 
	C513.000000,57.020386 513.000000,113.041534 513.000000,169.531342 
z"/>
<path fill="#FFFFFF" opacity="1.000000" stroke="none" 
	d="
M0.999998,264.468658 
	C2.962738,266.127869 4.853706,268.327515 6.898639,270.373230 
	C69.801018,333.299652 132.766251,396.163422 195.563416,459.194672 
	C202.215210,465.871246 212.483948,466.623413 218.942398,462.092377 
	C223.482010,458.907562 224.983536,454.677277 224.988297,449.571106 
	C225.013321,422.745422 224.981567,395.919678 225.015045,369.094055 
	C225.022018,363.511444 226.434509,358.252289 231.920486,355.828674 
	C235.047424,354.447327 238.833893,354.074829 242.324265,354.071045 
	C326.633484,353.979919 410.943054,353.918579 495.251831,354.135864 
	C503.009338,354.155853 508.496857,351.710297 512.658203,345.078522 
	C513.000000,400.973602 513.000000,456.947235 513.000000,512.960449 
	C342.440155,512.960449 171.880264,512.960449 1.000000,512.960449 
	C1.000000,430.312714 1.000000,347.625031 0.999998,264.468658 
z"/>
</svg>